<?xml version="1.0" encoding="UTF-8" standalone="no"?>
<svg
   xmlns:dc="http://purl.org/dc/elements/1.1/"
   xmlns:cc="http://creativecommons.org/ns#"
   xmlns:rdf="http://www.w3.org/1999/02/22-rdf-syntax-ns#"
   xmlns:svg="http://www.w3.org/2000/svg"
   xmlns="http://www.w3.org/2000/svg"
   id="svg371"
   version="1.1"
   viewBox="0 0 4.7625 4.7625"
   height="18"
   width="18">
  <defs
     id="defs365" />
  <metadata
     id="metadata368">
    <rdf:RDF>
      <cc:Work
         rdf:about="">
        <dc:format>image/svg+xml</dc:format>
        <dc:type
           rdf:resource="http://purl.org/dc/dcmitype/StillImage" />
        <dc:title></dc:title>
      </cc:Work>
    </rdf:RDF>
  </metadata>
  <g
     id="layer1">
    <g
       transform="matrix(0.26458333,0,0,0.26458333,-63.892812,-13.445608)"
       id="g141"
       style="fill:#484848;fill-opacity:1">
      <path
         fill-rule="evenodd"
         clip-rule="evenodd"
         fill="#484848"
         d="m 247.02,53.009 c 0.104,0.078 0.221,0.144 0.314,0.235 2.619,2.615 5.232,5.232 7.852,7.849 0.219,0.223 0.256,0.382 0.141,0.62 -0.098,0.197 -0.256,0.28 -0.475,0.28 -0.924,-0.004 -1.855,-0.002 -2.779,-0.002 -0.051,0 -0.096,0 -0.166,0 0.053,0.131 0.098,0.244 0.148,0.355 0.459,1.095 0.924,2.19 1.383,3.284 0.15,0.355 0.051,0.609 -0.301,0.759 -0.42,0.178 -0.834,0.355 -1.256,0.531 -0.334,0.143 -0.6,0.035 -0.74,-0.302 -0.465,-1.099 -0.928,-2.197 -1.391,-3.296 -0.023,-0.048 -0.045,-0.097 -0.113,-0.181 -0.025,0.044 -0.039,0.096 -0.074,0.131 -0.76,0.763 -1.525,1.524 -2.283,2.287 -0.164,0.166 -0.352,0.222 -0.57,0.137 -0.211,-0.083 -0.314,-0.239 -0.314,-0.478 -0.002,-0.937 -0.002,-1.873 -0.002,-2.81 0,-2.919 0.006,-5.838 -0.002,-8.757 -0.002,-0.31 0.09,-0.528 0.383,-0.642 0.082,0 0.163,0 0.245,0 z"
         id="path139"
         style="fill:#484848;fill-opacity:1" />
    </g>
  </g>
</svg>
