<?xml version="1.0" encoding="UTF-8" standalone="no"?>
<svg
   xmlns:dc="http://purl.org/dc/elements/1.1/"
   xmlns:cc="http://creativecommons.org/ns#"
   xmlns:rdf="http://www.w3.org/1999/02/22-rdf-syntax-ns#"
   xmlns:svg="http://www.w3.org/2000/svg"
   xmlns="http://www.w3.org/2000/svg"
   id="svg371"
   version="1.1"
   viewBox="0 0 4.7625 4.7625"
   height="18"
   width="18">
  <defs
     id="defs365" />
  <metadata
     id="metadata368">
    <rdf:RDF>
      <cc:Work
         rdf:about="">
        <dc:format>image/svg+xml</dc:format>
        <dc:type
           rdf:resource="http://purl.org/dc/dcmitype/StillImage" />
        <dc:title></dc:title>
      </cc:Work>
    </rdf:RDF>
  </metadata>
  <g
     id="layer1">
    <g
       transform="matrix(0.26458333,0,0,0.26458333,-73.58807,-13.447561)"
       id="g133"
       style="fill:#484848;fill-opacity:1">
      <path
         fill-rule="evenodd"
         clip-rule="evenodd"
         fill="#484848"
         d="m 290.399,56.763 c -1.455,0.704 -2.895,1.401 -4.332,2.098 -0.449,0.218 -0.895,0.438 -1.346,0.653 -0.104,0.047 -0.139,0.097 -0.125,0.219 0.025,0.146 0.031,0.303 0.008,0.448 -0.025,0.156 0.01,0.227 0.154,0.296 1.834,0.891 3.662,1.789 5.488,2.687 0.111,0.055 0.182,0.057 0.287,-0.035 0.816,-0.733 1.768,-0.947 2.801,-0.568 1.029,0.377 1.629,1.143 1.779,2.236 0.197,1.468 -0.871,2.863 -2.322,3.05 -1.539,0.2 -2.924,-0.846 -3.109,-2.36 -0.021,-0.196 -0.033,-0.397 -0.012,-0.593 0.014,-0.134 -0.02,-0.193 -0.135,-0.25 -0.91,-0.439 -1.818,-0.886 -2.729,-1.33 -0.93,-0.454 -1.852,-0.906 -2.777,-1.365 -0.121,-0.06 -0.197,-0.052 -0.305,0.042 -0.887,0.777 -1.895,0.962 -2.973,0.48 -1.066,-0.477 -1.627,-1.354 -1.613,-2.522 0.008,-1.149 0.576,-2.011 1.631,-2.473 1.049,-0.46 2.045,-0.29 2.922,0.462 0.139,0.116 0.229,0.137 0.391,0.057 1.803,-0.884 3.609,-1.76 5.422,-2.631 0.141,-0.068 0.174,-0.132 0.156,-0.291 -0.107,-1.371 0.844,-2.616 2.189,-2.885 1.73,-0.344 3.355,0.997 3.285,2.753 -0.043,1.157 -0.613,2.011 -1.689,2.458 -1.063,0.444 -2.049,0.241 -2.914,-0.518 -0.04,-0.034 -0.081,-0.072 -0.132,-0.118 z"
         id="path131"
         style="fill:#484848;fill-opacity:1" />
    </g>
  </g>
</svg>
