<?xml version="1.0" encoding="UTF-8" standalone="no"?>
<svg
   xmlns:dc="http://purl.org/dc/elements/1.1/"
   xmlns:cc="http://creativecommons.org/ns#"
   xmlns:rdf="http://www.w3.org/1999/02/22-rdf-syntax-ns#"
   xmlns:svg="http://www.w3.org/2000/svg"
   xmlns="http://www.w3.org/2000/svg"
   id="svg371"
   version="1.1"
   viewBox="0 0 7.9374999 7.4083333"
   height="28"
   width="30">
  <defs
     id="defs365" />
  <metadata
     id="metadata368">
    <rdf:RDF>
      <cc:Work
         rdf:about="">
        <dc:format>image/svg+xml</dc:format>
        <dc:type
           rdf:resource="http://purl.org/dc/dcmitype/StillImage" />
        <dc:title></dc:title>
      </cc:Work>
    </rdf:RDF>
  </metadata>
  <g
     id="layer1">
    <g
       transform="matrix(0.20571768,0,0,0.20571768,-83.316911,-24.546279)"
       id="g111"
       style="fill:#484848;fill-opacity:1">
      <path
         fill-rule="evenodd"
         clip-rule="evenodd"
         fill="#f9f6f3"
         d="m 426.484,136.529 c -0.09,0.204 -0.145,0.301 -0.18,0.404 -0.83,2.419 -1.662,4.837 -2.488,7.258 -0.303,0.891 -0.574,1.794 -0.889,2.682 -0.674,1.911 -1.369,3.813 -2.051,5.723 -0.094,0.265 -0.258,0.39 -0.543,0.38 -0.311,-0.012 -0.621,-0.01 -0.934,-0.001 -0.297,0.009 -0.465,-0.132 -0.563,-0.407 -0.625,-1.746 -1.25,-3.492 -1.883,-5.234 -1.027,-2.825 -2.064,-5.646 -3.094,-8.472 -0.801,-2.198 -1.594,-4.397 -2.389,-6.596 -0.592,-1.635 -1.186,-3.271 -1.773,-4.907 -0.094,-0.262 -0.26,-0.392 -0.541,-0.386 -0.334,0.006 -0.67,0.014 -1.002,-0.008 -0.684,-0.044 -1.094,-0.405 -1.111,-0.955 -0.014,-0.446 0.201,-0.792 0.627,-0.928 0.227,-0.072 0.473,-0.109 0.711,-0.111 1.338,-0.011 2.674,0.02 4.01,-0.013 1.414,-0.035 2.826,-0.127 4.238,-0.192 0.186,-0.008 0.369,-0.016 0.553,-0.005 0.395,0.022 0.633,0.272 0.65,0.666 0.021,0.446 -0.189,0.731 -0.604,0.779 -0.525,0.06 -1.053,0.105 -1.58,0.144 -0.377,0.028 -0.441,0.088 -0.33,0.441 0.283,0.901 0.576,1.799 0.877,2.695 1.213,3.627 2.432,7.254 3.648,10.88 0.535,1.595 1.076,3.188 1.617,4.781 0.047,0.135 0.121,0.26 0.23,0.49 0.107,-0.221 0.182,-0.34 0.223,-0.471 0.533,-1.631 1.051,-3.269 1.594,-4.897 0.627,-1.879 1.271,-3.753 1.924,-5.625 0.146,-0.425 0.131,-0.798 -0.031,-1.229 -0.705,-1.852 -1.363,-3.721 -2.039,-5.583 -0.143,-0.389 -0.246,-0.799 -0.443,-1.158 -0.088,-0.159 -0.354,-0.267 -0.557,-0.304 -0.451,-0.083 -0.914,-0.104 -1.371,-0.157 -0.506,-0.058 -0.73,-0.301 -0.711,-0.757 0.02,-0.465 0.283,-0.715 0.805,-0.693 1.068,0.047 2.135,0.146 3.201,0.176 0.932,0.027 1.865,-10e-4 2.797,-0.022 0.689,-0.015 1.379,-0.059 2.068,-0.091 0.459,-0.021 0.918,-0.061 1.379,-0.063 0.502,-0.002 0.756,0.219 0.785,0.637 0.035,0.486 -0.172,0.741 -0.686,0.81 -0.525,0.069 -1.051,0.118 -1.578,0.171 -0.277,0.028 -0.373,0.132 -0.271,0.429 0.625,1.819 1.238,3.643 1.848,5.467 0.271,0.809 0.521,1.624 0.793,2.433 0.969,2.895 1.943,5.789 2.914,8.684 0.184,0.546 0.35,1.098 0.527,1.646 0.039,0.116 0.094,0.228 0.182,0.438 0.098,-0.195 0.172,-0.302 0.209,-0.419 0.398,-1.274 0.785,-2.554 1.188,-3.827 0.43,-1.362 0.898,-2.712 1.307,-4.081 0.607,-2.042 0.732,-4.096 0.018,-6.149 -0.398,-1.143 -1.059,-2.144 -1.682,-3.167 -0.432,-0.711 -0.832,-1.439 -0.984,-2.269 -0.252,-1.364 0.068,-2.545 1.203,-3.414 1.336,-1.023 3.564,-0.689 4.611,0.64 0.67,0.853 0.938,1.842 1.037,2.885 0.205,2.138 0.086,4.262 -0.494,6.333 -0.352,1.252 -0.801,2.477 -1.223,3.708 -0.52,1.526 -1.059,3.047 -1.588,4.57 -0.303,0.87 -0.611,1.739 -0.904,2.613 -0.385,1.151 -0.736,2.315 -1.137,3.461 -0.707,2.026 -1.438,4.044 -2.168,6.062 -0.182,0.498 -0.285,0.549 -0.828,0.549 -1.068,0 -0.986,0.082 -1.369,-0.921 -0.785,-2.056 -1.555,-4.116 -2.309,-6.183 -1.094,-2.988 -2.168,-5.983 -3.252,-8.975 -0.032,-0.092 -0.09,-0.175 -0.194,-0.365 z"
         id="path109"
         style="fill:#484848;fill-opacity:1" />
    </g>
  </g>
</svg>
