<?xml version="1.0" encoding="UTF-8" standalone="no"?>
<svg
   xmlns:dc="http://purl.org/dc/elements/1.1/"
   xmlns:cc="http://creativecommons.org/ns#"
   xmlns:rdf="http://www.w3.org/1999/02/22-rdf-syntax-ns#"
   xmlns:svg="http://www.w3.org/2000/svg"
   xmlns="http://www.w3.org/2000/svg"
   id="svg8"
   version="1.1"
   viewBox="0 0 6.8791665 6.8791668"
   height="26"
   width="26">
  <defs
     id="defs2" />
  <metadata
     id="metadata5">
    <rdf:RDF>
      <cc:Work
         rdf:about="">
        <dc:format>image/svg+xml</dc:format>
        <dc:type
           rdf:resource="http://purl.org/dc/dcmitype/StillImage" />
        <dc:title></dc:title>
      </cc:Work>
    </rdf:RDF>
  </metadata>
  <g
     id="layer1">
    <path
       style="fill:#484848;fill-opacity:1;stroke-width:0.0140169"
       d="m 6.6908824,1.3286536 c -0.243894,0.10793 -0.504609,0.180818 -0.77934,0.214458 0.280338,-0.168203 0.496199,-0.434524 0.597121,-0.75130595 -0.262117,0.155587 -0.552267,0.26912495 -0.862041,0.32939695 -0.248099,-0.26491995 -0.601326,-0.43031895 -0.990996,-0.43031895 -0.749905,0 -1.356837,0.60833395 -1.356837,1.35823895 0,0.106529 0.01121,0.210254 0.03504,0.309774 -1.128361,-0.05607 -2.129169,-0.597121 -2.79777598,-1.41991395 -0.116341,0.20044195 -0.183622,0.43452495 -0.183622,0.68262395 0,0.470969 0.239689,0.887271 0.60412902,1.131165 -0.22286802,-0.0056 -0.43312202,-0.06728 -0.61534302,-0.169604 0,0.0056 0,0.01121 0,0.01682 0,0.658795 0.468166,1.206857 1.08911498,1.331607 -0.113537,0.03084 -0.234082,0.04766 -0.357431,0.04766 -0.08691,0 -0.17240796,-0.0084 -0.25510798,-0.02523 0.17240802,0.539652 0.67421298,0.932125 1.26853098,0.943339 -0.46396,0.36444 -1.049867,0.581702 -1.68623498,0.581702 -0.109332,0 -0.217263,-0.007 -0.323791,-0.01962 0.599924,0.389671 1.31338498,0.613941 2.07870898,0.613941 2.497815,0 3.863062,-2.070298 3.863062,-3.865866 0,-0.05887 -0.0014,-0.117742 -0.0042,-0.175211 0.26492,-0.192032 0.494798,-0.431721 0.677017,-0.703649 z"
       id="path452" />
  </g>
</svg>
