<?xml version="1.0" encoding="UTF-8" standalone="no"?>
<svg
   xmlns:dc="http://purl.org/dc/elements/1.1/"
   xmlns:cc="http://creativecommons.org/ns#"
   xmlns:rdf="http://www.w3.org/1999/02/22-rdf-syntax-ns#"
   xmlns:svg="http://www.w3.org/2000/svg"
   xmlns="http://www.w3.org/2000/svg"
   xml:space="preserve"
   enable-background="new 0 0 500 300"
   viewBox="0 0 25 25"
   height="25"
   width="25"
   y="0px"
   x="0px"
   id="Layer_1"
   version="1.1"><metadata
   id="metadata156"><rdf:RDF><cc:Work
       rdf:about=""><dc:format>image/svg+xml</dc:format><dc:type
         rdf:resource="http://purl.org/dc/dcmitype/StillImage" /><dc:title></dc:title></cc:Work></rdf:RDF></metadata><defs
   id="defs154">
	
	

		
		
		
		
		
		
		
		
		
		
		
		
		
		
		
		
		
		
	</defs>
<g
   transform="translate(-469.87382,-16.561514)"
   id="g38">
			<g
   id="g18">
				<path
   id="path10"
   d="m 224.613,7.039 c 6.314,0 12.51,0 18.818,0 -3.178,2.552 -6.279,5.042 -9.408,7.557 -3.115,-2.503 -6.22,-4.997 -9.41,-7.557 z"
   fill="#f2f2f2"
   clip-rule="evenodd"
   fill-rule="evenodd" />
				<path
   id="path12"
   d="m 224.025,20.362 c 2.803,-1.81 5.51,-3.556 8.254,-5.327 0.574,0.556 1.145,1.107 1.791,1.729 0.547,-0.615 1.066,-1.201 1.596,-1.794 2.827,1.825 5.543,3.575 8.355,5.391 -6.701,10e-4 -13.279,10e-4 -19.996,10e-4 z"
   fill="#f2f2f2"
   clip-rule="evenodd"
   fill-rule="evenodd" />
				<path
   id="path14"
   d="m 244.025,7.029 c 0,4.191 0,8.296 0,12.485 -2.445,-1.82 -4.85,-3.609 -7.289,-5.422 2.438,-2.359 4.836,-4.685 7.289,-7.063 z"
   fill="#f2f2f2"
   clip-rule="evenodd"
   fill-rule="evenodd" />
				<path
   id="path16"
   d="m 224.018,19.518 c 0,-4.188 0,-8.292 0,-12.49 2.451,2.375 4.851,4.699 7.291,7.063 -2.426,1.805 -4.827,3.591 -7.291,5.427 z"
   fill="#f2f2f2"
   clip-rule="evenodd"
   fill-rule="evenodd" />
			</g>
			<path
   id="path20"
   d="m 182.854,9.986 c -0.137,1.183 -0.26,2.312 -0.41,3.438 -0.012,0.087 -0.221,0.21 -0.34,0.212 -0.814,0.019 -1.631,0.031 -2.445,0.002 -0.404,-0.015 -0.535,0.099 -0.533,0.521 0.016,3.356 0.002,6.712 0.02,10.068 0.002,0.418 -0.117,0.525 -0.525,0.516 -1.207,-0.026 -2.419,-0.009 -3.627,-0.009 -0.143,0 -0.289,0 -0.496,0 0,-0.22 0,-0.392 0,-0.563 0,-3.329 0,-6.658 0,-9.987 0,-0.536 -0.003,-0.537 -0.539,-0.538 -0.693,-0.001 -1.385,0 -2.111,0 -0.016,-0.146 -0.037,-0.26 -0.037,-0.377 -0.004,-0.979 0.004,-1.957 -0.008,-2.935 -0.004,-0.262 0.08,-0.358 0.35,-0.352 0.639,0.015 1.277,-0.013 1.916,0.011 0.346,0.011 0.438,-0.122 0.436,-0.451 -0.014,-0.937 -0.035,-1.878 0.021,-2.812 0.078,-1.383 0.498,-2.619 1.777,-3.378 0.776,-0.46 1.646,-0.647 2.531,-0.678 1.207,-0.04 2.42,-0.026 3.627,-0.015 0.113,0 0.322,0.14 0.324,0.217 0.021,1.097 0.016,2.195 0.016,3.351 -0.584,0 -1.123,-0.018 -1.66,0.007 -0.418,0.019 -0.838,0.064 -1.248,0.148 -0.375,0.079 -0.652,0.348 -0.676,0.727 -0.057,0.88 -0.066,1.763 -0.061,2.644 0,0.078 0.242,0.221 0.375,0.223 0.951,0.019 1.902,0.01 2.854,0.01 0.144,0 0.291,0 0.469,0 z"
   fill="#f2f2f2"
   clip-rule="evenodd"
   fill-rule="evenodd" />
			<g
   id="g28">
				<path
   id="path22"
   d="m 15.281,12.267 c 0.363,-0.391 0.633,-0.714 0.936,-1 1.648,-1.553 5.664,-1.431 6.864,1.664 0.271,0.697 0.463,1.468 0.481,2.211 0.063,2.471 0.027,4.944 0.039,7.417 0.001,0.311 -0.102,0.439 -0.425,0.436 -1.032,-0.012 -2.064,-0.014 -3.097,0.002 -0.354,0.005 -0.435,-0.152 -0.434,-0.469 0.009,-1.997 0.013,-3.994 -0.003,-5.991 -0.003,-0.473 -0.051,-0.952 -0.144,-1.414 -0.163,-0.803 -0.596,-1.421 -1.446,-1.583 -0.946,-0.181 -1.743,0.104 -2.32,0.913 -0.375,0.524 -0.449,1.127 -0.45,1.744 -0.002,2.065 0,4.131 0,6.196 -0.002,0.596 -0.002,0.597 -0.58,0.598 -0.979,0.002 -1.956,-0.007 -2.935,0.004 -0.31,0.004 -0.437,-0.1 -0.437,-0.423 0.006,-3.831 0.006,-7.663 0,-11.494 0,-0.311 0.104,-0.438 0.426,-0.435 1.032,0.012 2.064,0.012 3.097,0 0.314,-0.004 0.446,0.11 0.431,0.429 -0.014,0.363 -0.003,0.727 -0.003,1.195 z"
   fill="#f2f2f2"
   clip-rule="evenodd"
   fill-rule="evenodd" />
				<path
   id="path24"
   d="m 8.923,16.821 c 10e-4,1.888 -0.009,3.776 0.008,5.663 0.003,0.392 -0.127,0.522 -0.516,0.514 C 7.424,22.976 6.433,22.978 5.44,22.997 5.082,23.003 4.97,22.872 4.97,22.521 c 0.01,-3.804 0.01,-7.606 0,-11.409 0,-0.356 0.121,-0.478 0.475,-0.472 1.004,0.018 2.01,0.018 3.014,0 0.359,-0.007 0.472,0.124 0.47,0.476 -0.011,1.902 -0.006,3.803 -0.006,5.705 z"
   fill="#f2f2f2"
   clip-rule="evenodd"
   fill-rule="evenodd" />
				<path
   id="path26"
   d="M 7.038,8.64 C 5.799,8.635 4.928,7.773 4.923,6.544 4.917,5.295 5.831,4.39 7.09,4.392 8.346,4.395 9.239,5.306 9.226,6.572 9.212,7.803 8.321,8.646 7.038,8.64 Z"
   fill="#f2f2f2"
   clip-rule="evenodd"
   fill-rule="evenodd" />
			</g>
			<g
   id="g32">
				<path
   id="path30"
   d="m 128.298,16.662 c -0.385,-0.079 -0.733,-0.135 -1.073,-0.224 -1.089,-0.284 -2.025,-0.819 -2.732,-1.713 -0.496,-0.628 -0.745,-1.358 -0.822,-2.147 -0.108,-1.09 -0.037,-2.172 0.211,-3.239 0.112,-0.479 0.331,-0.908 0.677,-1.262 0.173,-0.178 0.206,-0.373 0.129,-0.603 -0.271,-0.797 -0.196,-1.59 0.035,-2.382 0.057,-0.193 0.162,-0.24 0.356,-0.184 0.748,0.214 1.286,0.709 1.766,1.286 0.101,0.123 0.178,0.316 0.302,0.351 0.111,0.032 0.264,-0.136 0.411,-0.168 0.519,-0.115 1.041,-0.246 1.569,-0.303 0.995,-0.107 1.993,-0.057 2.978,0.131 0.26,0.05 0.514,0.167 0.751,0.291 0.155,0.081 0.227,0.061 0.34,-0.063 0.345,-0.377 0.683,-0.769 1.075,-1.092 0.246,-0.204 0.584,-0.3 0.885,-0.435 0.163,-0.073 0.271,-0.011 0.328,0.162 0.277,0.826 0.341,1.654 0.021,2.481 -0.076,0.197 -0.047,0.328 0.104,0.479 0.505,0.509 0.733,1.153 0.833,1.846 0.129,0.891 0.204,1.785 0.101,2.687 -0.176,1.542 -0.947,2.679 -2.326,3.392 -0.672,0.347 -1.385,0.559 -2.135,0.653 -0.05,0.005 -0.097,0.031 -0.101,0.033 0.13,0.374 0.27,0.733 0.379,1.102 0.057,0.19 0.084,0.396 0.085,0.596 0.008,1.262 0.004,2.524 0.004,3.787 0,0.377 -0.015,0.394 -0.394,0.394 -1.315,0 -2.63,0 -3.945,0 -0.324,0 -0.356,-0.039 -0.354,-0.369 0.004,-0.633 0.001,-1.267 0.001,-1.945 -0.206,0.025 -0.408,0.049 -0.611,0.072 -0.993,0.107 -1.91,-0.072 -2.695,-0.732 -0.365,-0.308 -0.609,-0.703 -0.832,-1.12 -0.226,-0.425 -0.465,-0.848 -0.745,-1.238 -0.188,-0.264 -0.457,-0.472 -0.69,-0.703 -0.026,-0.027 -0.065,-0.045 -0.085,-0.075 -0.055,-0.083 -0.104,-0.171 -0.154,-0.256 0.094,-0.036 0.187,-0.097 0.281,-0.103 0.828,-0.05 1.432,0.324 1.882,0.997 0.181,0.269 0.359,0.547 0.585,0.775 0.8,0.811 1.771,0.973 2.838,0.662 0.093,-0.028 0.202,-0.168 0.214,-0.268 0.072,-0.548 0.176,-1.076 0.553,-1.553 z"
   fill="#f2f2f2"
   clip-rule="evenodd"
   fill-rule="evenodd" />
			</g>
			<g
   id="g36">
				<path
   id="path34"
   d="m 73.128,23.195 c -0.123,0 -0.246,0 -0.371,0 -0.144,-0.081 -0.295,-0.153 -0.432,-0.243 -2.765,-1.843 -5.531,-3.688 -8.297,-5.528 -0.244,-0.163 -0.472,-0.33 -0.585,-0.612 0,-2.079 0,-4.157 0,-6.235 0.101,-0.198 0.221,-0.372 0.414,-0.5 2.855,-1.898 5.708,-3.799 8.559,-5.703 0.354,-0.236 0.695,-0.24 1.051,-0.002 2.852,1.903 5.703,3.805 8.558,5.703 0.288,0.192 0.424,0.439 0.423,0.79 -0.008,1.874 -0.01,3.747 0.002,5.62 10e-4,0.388 -0.148,0.648 -0.467,0.86 -2.481,1.646 -4.955,3.302 -7.435,4.951 -0.466,0.308 -0.946,0.599 -1.42,0.899 z m -7.38,-6.6 c 2.133,1.422 4.242,2.826 6.362,4.239 0.009,-0.045 0.017,-0.062 0.017,-0.079 0,-1.199 0.002,-2.398 -0.004,-3.597 0,-0.063 -0.058,-0.146 -0.113,-0.183 -1.096,-0.738 -2.196,-1.471 -3.293,-2.208 -0.098,-0.064 -0.16,-0.068 -0.26,-10e-4 -0.854,0.578 -1.713,1.149 -2.569,1.723 -0.041,0.028 -0.078,0.058 -0.14,0.106 z m 0.002,-5.803 c 0.047,0.038 0.072,0.063 0.102,0.082 0.877,0.587 1.757,1.172 2.63,1.766 0.109,0.074 0.167,0.023 0.243,-0.027 1.089,-0.728 2.178,-1.456 3.269,-2.18 0.096,-0.065 0.139,-0.13 0.138,-0.251 -0.006,-1.15 -0.004,-2.3 -0.005,-3.449 0,-0.052 -0.006,-0.104 -0.012,-0.184 -2.131,1.421 -4.24,2.826 -6.365,4.243 z m 14.388,5.804 c -0.045,-0.037 -0.063,-0.056 -0.083,-0.069 -0.883,-0.591 -1.769,-1.179 -2.646,-1.776 -0.107,-0.071 -0.166,-0.03 -0.244,0.022 -1.088,0.727 -2.176,1.456 -3.269,2.179 -0.104,0.07 -0.142,0.144 -0.141,0.268 0.005,1.138 0.003,2.276 0.003,3.413 0,0.058 0,0.117 0,0.214 2.143,-1.428 4.251,-2.833 6.38,-4.251 z M 73.759,6.541 c 0,1.265 -0.002,2.484 0.006,3.701 0,0.06 0.064,0.14 0.121,0.179 1.091,0.734 2.188,1.461 3.277,2.196 0.105,0.07 0.174,0.068 0.275,-0.001 0.844,-0.572 1.691,-1.136 2.539,-1.703 0.049,-0.034 0.094,-0.071 0.16,-0.12 C 78.009,9.374 75.901,7.968 73.759,6.541 Z m 2.051,7.16 c -0.036,-0.03 -0.053,-0.046 -0.071,-0.06 -0.897,-0.602 -1.796,-1.2 -2.69,-1.807 -0.105,-0.071 -0.165,-0.025 -0.244,0.026 -0.866,0.581 -1.733,1.16 -2.6,1.74 -0.039,0.027 -0.076,0.057 -0.113,0.083 0.014,0.023 0.018,0.037 0.026,0.042 0.913,0.612 1.825,1.224 2.741,1.83 0.041,0.028 0.133,0.026 0.175,-0.002 0.919,-0.608 1.836,-1.223 2.776,-1.852 z m -10.732,1.354 c 0.692,-0.462 1.354,-0.905 2.038,-1.362 -0.69,-0.46 -1.353,-0.902 -2.038,-1.359 0,0.921 0,1.798 0,2.721 z M 80.8,15.05 c 0,-0.921 0,-1.8 0,-2.712 -0.685,0.457 -1.347,0.9 -2.029,1.356 0.688,0.461 1.347,0.901 2.029,1.356 z"
   fill="#f2f2f2"
   clip-rule="evenodd"
   fill-rule="evenodd" />
			</g>
		</g><g
   transform="translate(-469.87382,-16.561514)"
   id="g44">
			<g
   id="g42">
				<path
   id="path40"
   d="m 6,58.961 c 0.107,-0.129 0.203,-0.269 0.324,-0.381 0.1,-0.094 0.231,-0.086 0.32,0.032 0.082,0.11 0.074,0.22 -0.035,0.323 -0.215,0.206 -0.178,0.36 0.117,0.458 0.703,0.235 1.41,0.465 2.113,0.699 1.043,0.346 2.088,0.688 3.127,1.045 0.161,0.055 0.257,0.025 0.377,-0.08 2.516,-2.204 5.034,-4.401 7.551,-6.602 2,-1.748 4,-3.496 6,-5.245 0.053,-0.047 0.104,-0.095 0.141,-0.178 -0.076,0.036 -0.152,0.071 -0.228,0.108 -4.009,2.049 -8.018,4.098 -12.026,6.144 C 11.878,56.256 9.972,57.226 8.07,58.196 8.013,58.225 7.947,58.281 7.896,58.27 7.796,58.25 7.669,58.216 7.623,58.143 7.59,58.092 7.646,57.947 7.705,57.88 c 0.068,-0.076 0.18,-0.112 0.275,-0.161 5.881,-3 11.764,-6.001 17.646,-9 0.61,-0.312 1.223,-0.622 1.833,-0.935 0.068,-0.035 0.132,-0.083 0.197,-0.124 0.115,0 0.23,0 0.344,0 0,0.115 0,0.229 0,0.344 -0.139,0.16 -0.284,0.314 -0.418,0.479 -3.776,4.625 -7.551,9.249 -11.326,13.874 -0.053,0.065 -0.104,0.134 -0.176,0.226 0.244,0.086 0.469,0.165 0.695,0.241 2.196,0.745 4.395,1.49 6.594,2.229 0.156,0.051 0.342,0.068 0.502,0.041 0.229,-0.038 0.303,-0.245 0.342,-0.447 0.275,-1.38 0.547,-2.761 0.818,-4.142 0.336,-1.709 0.67,-3.419 1.008,-5.13 0.381,-1.934 0.766,-3.867 1.148,-5.8 0.013,-0.063 0.029,-0.125 0.041,-0.188 0.025,-0.146 0.107,-0.217 0.256,-0.187 0.143,0.027 0.209,0.124 0.183,0.265 -0.065,0.374 -0.136,0.745 -0.209,1.116 -0.464,2.354 -0.929,4.708 -1.396,7.063 -0.406,2.067 -0.814,4.132 -1.224,6.2 -0.061,0.309 -0.123,0.616 -0.188,0.923 -0.146,0.678 -0.682,0.98 -1.342,0.759 -1.528,-0.516 -3.058,-1.032 -4.582,-1.56 -0.173,-0.059 -0.27,-0.043 -0.396,0.102 -1.172,1.334 -2.354,2.661 -3.533,3.986 -0.365,0.41 -0.465,0.39 -0.641,-0.132 -0.541,-1.602 -1.08,-3.208 -1.619,-4.811 -0.014,-0.04 -0.029,-0.08 -0.04,-0.121 -0.039,-0.145 -0.015,-0.261 0.146,-0.306 0.145,-0.041 0.231,0.027 0.277,0.161 0.09,0.264 0.18,0.527 0.27,0.792 0.379,1.123 0.756,2.246 1.135,3.37 0.02,0.058 0.043,0.115 0.082,0.215 0.227,-1.003 0.446,-1.962 0.662,-2.921 0.104,-0.459 0.188,-0.924 0.308,-1.379 0.051,-0.193 0.139,-0.395 0.263,-0.548 2.883,-3.543 5.771,-7.079 8.658,-10.618 0.457,-0.56 0.914,-1.119 1.355,-1.703 -0.039,0.028 -0.08,0.054 -0.117,0.086 -3.85,3.361 -7.698,6.727 -11.547,10.088 -0.523,0.458 -1.047,0.915 -1.566,1.375 -0.105,0.094 -0.199,0.104 -0.33,0.06 C 10.312,61.069 8.53,60.477 6.747,59.893 6.433,59.791 6.148,59.666 6,59.348 6,59.219 6,59.09 6,58.961 Z m 8.898,8.225 c 0.01,0.006 0.02,0.013 0.029,0.018 1.023,-1.15 2.046,-2.3 3.09,-3.474 -0.742,-0.252 -1.449,-0.491 -2.169,-0.735 -0.318,1.409 -0.633,2.8 -0.95,4.191 z"
   stroke-miterlimit="10"
   stroke-width="0.5"
   stroke="#ffffff"
   fill="#ffffff"
   clip-rule="evenodd"
   fill-rule="evenodd" />
			</g>
		</g><g
   transform="translate(-67.565457,-78.238076)"
   id="g48">
			<path
   id="path46"
   d="m 6,90.961 c 0.107,-0.129 0.203,-0.269 0.324,-0.381 0.1,-0.094 0.231,-0.086 0.32,0.032 0.082,0.11 0.074,0.22 -0.035,0.323 -0.215,0.206 -0.178,0.36 0.117,0.458 0.703,0.235 1.41,0.465 2.113,0.699 1.043,0.346 2.088,0.688 3.127,1.045 0.161,0.055 0.257,0.025 0.377,-0.08 2.516,-2.204 5.034,-4.401 7.551,-6.602 2,-1.748 4,-3.496 6,-5.245 0.053,-0.047 0.104,-0.095 0.141,-0.178 -0.076,0.036 -0.152,0.071 -0.228,0.108 -4.009,2.049 -8.018,4.098 -12.026,6.144 C 11.878,88.256 9.972,89.226 8.07,90.196 8.013,90.225 7.947,90.281 7.896,90.27 7.796,90.25 7.669,90.216 7.623,90.143 7.59,90.092 7.646,89.947 7.705,89.88 c 0.068,-0.076 0.18,-0.112 0.275,-0.161 5.881,-3 11.764,-6.001 17.646,-9 0.61,-0.312 1.223,-0.622 1.833,-0.935 0.068,-0.035 0.132,-0.083 0.197,-0.124 0.115,0 0.23,0 0.344,0 0,0.115 0,0.229 0,0.344 -0.139,0.16 -0.284,0.314 -0.418,0.479 -3.776,4.625 -7.551,9.249 -11.326,13.874 -0.053,0.065 -0.104,0.134 -0.176,0.226 0.244,0.086 0.469,0.165 0.695,0.241 2.196,0.745 4.395,1.49 6.594,2.229 0.156,0.051 0.342,0.068 0.502,0.041 0.229,-0.038 0.303,-0.245 0.342,-0.447 0.275,-1.38 0.547,-2.761 0.818,-4.142 0.336,-1.709 0.67,-3.419 1.008,-5.13 0.381,-1.934 0.766,-3.867 1.148,-5.8 0.013,-0.063 0.029,-0.125 0.041,-0.188 0.025,-0.146 0.107,-0.217 0.256,-0.187 0.143,0.027 0.209,0.124 0.183,0.265 -0.065,0.374 -0.136,0.745 -0.209,1.116 -0.464,2.354 -0.929,4.708 -1.396,7.063 -0.406,2.067 -0.814,4.132 -1.224,6.2 -0.061,0.309 -0.123,0.616 -0.188,0.923 -0.146,0.678 -0.682,0.98 -1.342,0.759 -1.528,-0.516 -3.058,-1.032 -4.582,-1.56 -0.173,-0.059 -0.27,-0.043 -0.396,0.102 -1.172,1.334 -2.354,2.661 -3.533,3.986 -0.365,0.41 -0.465,0.39 -0.641,-0.132 -0.541,-1.602 -1.08,-3.208 -1.619,-4.811 -0.014,-0.04 -0.029,-0.08 -0.04,-0.121 -0.039,-0.145 -0.015,-0.261 0.146,-0.306 0.145,-0.041 0.231,0.027 0.277,0.161 0.09,0.264 0.18,0.527 0.27,0.792 0.379,1.123 0.756,2.246 1.135,3.37 0.02,0.058 0.043,0.115 0.082,0.215 0.227,-1.003 0.446,-1.962 0.662,-2.921 0.104,-0.459 0.188,-0.924 0.308,-1.379 0.051,-0.193 0.139,-0.395 0.263,-0.548 2.883,-3.543 5.771,-7.079 8.658,-10.618 0.457,-0.56 0.914,-1.119 1.355,-1.703 -0.039,0.028 -0.08,0.054 -0.117,0.086 -3.85,3.361 -7.698,6.727 -11.547,10.088 -0.523,0.458 -1.047,0.915 -1.566,1.375 -0.105,0.094 -0.199,0.104 -0.33,0.06 C 10.312,93.069 8.53,92.477 6.747,91.893 6.433,91.791 6.148,91.666 6,91.348 6,91.219 6,91.09 6,90.961 Z m 8.898,8.225 c 0.01,0.006 0.02,0.013 0.029,0.018 1.023,-1.15 2.046,-2.3 3.09,-3.474 -0.742,-0.252 -1.449,-0.491 -2.169,-0.735 -0.318,1.409 -0.633,2.8 -0.95,4.191 z"
   stroke-miterlimit="10"
   stroke-width="0.5"
   stroke="#424a51"
   fill="#424a51"
   clip-rule="evenodd"
   fill-rule="evenodd" />
		</g><g
   transform="translate(-469.87382,-16.561514)"
   id="g56">
			<g
   id="g54">
				<path
   id="path50"
   d="m 59.5,62.43 c 0.107,-0.24 0.261,-0.437 0.538,-0.484 0.414,-0.074 0.772,0.232 0.773,0.663 0.002,1.436 0,2.871 0,4.307 0,0.081 0,0.163 0,0.26 6.126,0 12.239,0 18.379,0 0,-0.074 0,-0.146 0,-0.219 0,-1.4 0,-2.803 0,-4.204 0,-0.455 0.155,-0.707 0.488,-0.797 0.336,-0.09 0.606,0.066 0.823,0.475 0,1.86 0,3.719 0,5.578 -0.094,0.234 -0.258,0.398 -0.492,0.492 -6.672,0 -13.343,0 -20.016,0 C 59.759,68.407 59.594,68.244 59.501,68.009 59.5,66.148 59.5,64.29 59.5,62.43 Z"
   fill="#fce011"
   clip-rule="evenodd"
   fill-rule="evenodd" />
				<path
   id="path52"
   d="m 70.164,47.5 c 0.374,0.16 0.497,0.444 0.496,0.848 -0.01,4.121 -0.005,8.241 -0.005,12.362 0,0.08 0,0.161 0,0.293 0.083,-0.078 0.134,-0.125 0.185,-0.175 1.081,-1.064 2.159,-2.131 3.241,-3.194 0.395,-0.389 0.999,-0.249 1.143,0.263 0.08,0.281 -0.033,0.502 -0.232,0.698 -0.926,0.91 -1.85,1.822 -2.774,2.733 -0.564,0.557 -1.13,1.112 -1.695,1.668 -0.347,0.342 -0.715,0.346 -1.06,0.008 -1.494,-1.473 -2.987,-2.946 -4.48,-4.421 -0.312,-0.308 -0.333,-0.705 -0.058,-0.98 0.275,-0.274 0.679,-0.262 0.986,0.04 1.048,1.029 2.094,2.063 3.139,3.095 0.072,0.072 0.13,0.159 0.195,0.238 0.026,-0.01 0.051,-0.019 0.078,-0.028 0,-0.082 0,-0.163 0,-0.244 0,-4.1 0.003,-8.2 -0.005,-12.301 -0.001,-0.404 0.095,-0.72 0.478,-0.902 C 69.918,47.5 70.041,47.5 70.164,47.5 Z"
   fill="#fce011"
   clip-rule="evenodd"
   fill-rule="evenodd" />
			</g>
		</g><g
   transform="translate(-57.5,-77.365932)"
   id="g62">
			<path
   id="path58"
   d="m 59.5,94.43 c 0.107,-0.24 0.261,-0.437 0.538,-0.484 0.414,-0.074 0.772,0.232 0.773,0.663 0.002,1.436 0,2.871 0,4.307 0,0.081 0,0.163 0,0.26 6.126,0 12.239,0 18.379,0 0,-0.074 0,-0.146 0,-0.219 0,-1.4 0,-2.803 0,-4.204 0,-0.455 0.155,-0.707 0.488,-0.797 0.336,-0.09 0.606,0.066 0.823,0.475 0,1.86 0,3.719 0,5.578 -0.094,0.234 -0.258,0.398 -0.492,0.492 -6.672,0 -13.343,0 -20.016,0 -0.234,-0.094 -0.399,-0.257 -0.492,-0.492 C 59.5,98.148 59.5,96.29 59.5,94.43 Z"
   fill="#424a51"
   clip-rule="evenodd"
   fill-rule="evenodd" />
			<path
   id="path60"
   d="m 70.164,79.5 c 0.374,0.16 0.497,0.444 0.496,0.848 -0.01,4.121 -0.005,8.241 -0.005,12.362 0,0.08 0,0.161 0,0.293 0.083,-0.078 0.134,-0.125 0.185,-0.175 1.081,-1.064 2.159,-2.131 3.241,-3.194 0.395,-0.389 0.999,-0.249 1.143,0.263 0.08,0.281 -0.033,0.502 -0.232,0.698 -0.926,0.91 -1.85,1.822 -2.774,2.733 -0.564,0.557 -1.13,1.112 -1.695,1.668 -0.347,0.342 -0.715,0.346 -1.06,0.008 -1.494,-1.473 -2.987,-2.946 -4.48,-4.421 -0.312,-0.308 -0.333,-0.705 -0.058,-0.98 0.275,-0.274 0.679,-0.262 0.986,0.04 1.048,1.029 2.094,2.063 3.139,3.095 0.072,0.072 0.13,0.159 0.195,0.238 0.026,-0.01 0.051,-0.019 0.078,-0.028 0,-0.082 0,-0.163 0,-0.244 0,-4.1 0.003,-8.2 -0.005,-12.301 -0.001,-0.404 0.095,-0.72 0.478,-0.902 C 69.918,79.5 70.041,79.5 70.164,79.5 Z"
   fill="#424a51"
   clip-rule="evenodd"
   fill-rule="evenodd" />
		</g><g
   transform="translate(-469.87382,-16.561514)"
   id="gkBZsQ_1_">
			<g
   id="g68">
				<g
   id="g66">
					<path
   id="path64"
   d="m 86.708,147.898 c 0,-0.068 0,-0.137 0,-0.205 0.021,-0.039 0.053,-0.076 0.061,-0.118 0.211,-1.059 0.418,-2.118 0.628,-3.178 0.235,-1.19 0.472,-2.381 0.709,-3.574 1.964,0 3.902,0 5.875,0 -0.19,0.977 -0.373,1.921 -0.557,2.867 0.064,0.031 0.103,0.054 0.144,0.069 2.675,1.023 5.349,2.047 8.026,3.063 0.104,0.04 0.247,0.037 0.354,0.003 3.066,-1.008 6.13,-2.018 9.19,-3.043 0.127,-0.042 0.275,-0.206 0.302,-0.337 0.377,-1.813 0.736,-3.631 1.097,-5.448 0.062,-0.315 0.114,-0.632 0.178,-0.989 -7.995,0 -15.929,0 -23.864,0 -0.004,-0.067 -0.014,-0.102 -0.007,-0.134 0.353,-1.783 0.718,-3.564 1.053,-5.353 0.06,-0.317 0.175,-0.397 0.481,-0.393 1.436,0.015 2.871,0.008 4.306,0.008 6.254,0 12.508,0.001 18.761,0.001 0.146,0 0.293,0 0.457,0 0.249,-1.272 0.491,-2.514 0.744,-3.807 -8.009,0 -15.942,0 -23.9,0 0.395,-1.979 0.782,-3.916 1.17,-5.857 0.121,-0.006 0.21,-0.014 0.3,-0.014 7.735,-0.002 15.469,0 23.204,-0.002 2.096,0 4.191,-0.008 6.287,-0.013 0,0.068 0,0.137 0,0.205 -0.025,0.06 -0.062,0.117 -0.074,0.18 -0.666,3.354 -1.327,6.709 -1.997,10.063 -1.037,5.204 -2.083,10.405 -3.115,15.61 -0.051,0.255 -0.146,0.383 -0.398,0.466 -5.08,1.679 -10.157,3.363 -15.232,5.057 -0.267,0.089 -0.493,0.074 -0.75,-0.024 -4.347,-1.67 -8.698,-3.334 -13.048,-4.997 -0.123,-0.049 -0.256,-0.071 -0.385,-0.106 z"
   fill="#f9f6f3" />
				</g>
			</g>
		</g><g
   transform="translate(-469.87382,-16.561514)"
   id="DTyRfQ_1_">
			<g
   id="g77">
				<g
   id="g75">
					<path
   id="path71"
   d="m 207.142,129.806 c -1.042,-0.304 -2.049,-0.667 -3.086,-0.885 -1.355,-0.286 -2.736,-0.383 -4.099,0.023 -0.572,0.171 -1.083,0.452 -1.468,0.923 -0.678,0.828 -0.667,2.016 0.091,2.767 0.377,0.374 0.83,0.709 1.307,0.939 1.044,0.503 2.119,0.944 3.194,1.378 1.316,0.532 2.589,1.135 3.708,2.024 1.841,1.462 2.71,3.377 2.656,5.719 -0.077,3.37 -2.003,5.938 -5.343,7.114 -2.11,0.743 -4.289,0.889 -6.5,0.713 -1.706,-0.135 -3.363,-0.49 -4.956,-1.123 -0.296,-0.117 -0.583,-0.262 -0.896,-0.403 0.397,-1.606 0.789,-3.185 1.183,-4.778 0.538,0.224 1.05,0.451 1.573,0.649 1.474,0.559 3.001,0.868 4.575,0.927 0.925,0.034 1.841,-0.045 2.71,-0.4 1.341,-0.549 1.976,-1.756 1.631,-3.077 -0.169,-0.648 -0.594,-1.106 -1.119,-1.484 -0.888,-0.638 -1.899,-1.022 -2.918,-1.384 -1.643,-0.585 -3.208,-1.31 -4.604,-2.381 -4.052,-3.112 -3.383,-8.942 0.653,-11.472 1.536,-0.963 3.222,-1.454 5.007,-1.6 2.22,-0.182 4.413,-0.008 6.547,0.676 0.415,0.134 0.82,0.3 1.217,0.479 0.082,0.038 0.172,0.216 0.15,0.3 -0.393,1.451 -0.802,2.898 -1.209,4.347 -0.008,0.028 -0.027,0.056 -0.004,0.009 z"
   fill="#f9f6f3"
   clip-rule="evenodd"
   fill-rule="evenodd" />
					<path
   id="path73"
   d="m 182.067,124.369 c 1.965,0 3.873,0 5.799,0 0.013,0.091 0.034,0.167 0.034,0.243 -0.004,5.539 -0.003,11.076 -0.019,16.613 -0.004,1.562 -0.225,3.096 -0.789,4.563 -0.958,2.493 -2.795,3.961 -5.381,4.505 -2.301,0.484 -4.594,0.376 -6.869,-0.199 -0.121,-0.03 -0.239,-0.069 -0.396,-0.116 0.217,-1.57 0.432,-3.125 0.64,-4.629 0.869,0.121 1.713,0.286 2.565,0.342 0.588,0.037 1.202,-0.005 1.779,-0.131 1.455,-0.316 2.146,-1.376 2.417,-2.744 0.129,-0.65 0.207,-1.321 0.208,-1.983 0.017,-5.343 0.01,-10.685 0.01,-16.026 0.002,-0.137 0.002,-0.273 0.002,-0.438 z"
   fill="#f9f6f3"
   clip-rule="evenodd"
   fill-rule="evenodd" />
				</g>
			</g>
		</g><g
   transform="translate(-469.87382,-16.561514)"
   id="ZJdHiV_1_">
			<g
   id="g88">
				<g
   id="g86">
					<path
   id="path80"
   d="m 268.654,125.251 c -0.65,1.42 -1.084,2.886 -1.268,4.429 -0.25,2.093 -0.055,4.148 0.537,6.164 1.262,4.308 3.85,7.665 7.465,10.255 2.318,1.657 4.867,2.818 7.691,3.304 3.605,0.618 7.137,0.431 10.516,-1.111 1.744,-0.795 3.234,-1.929 4.453,-3.413 0.039,-0.049 0.082,-0.096 0.172,-0.119 -0.035,0.083 -0.064,0.17 -0.105,0.25 -2.223,4.453 -5.725,7.331 -10.572,8.516 -2.439,0.596 -4.914,0.601 -7.389,0.252 -3.217,-0.453 -6.021,-1.869 -8.553,-3.834 -3.461,-2.686 -5.842,-6.127 -6.955,-10.39 -0.777,-2.972 -0.762,-5.931 0.35,-8.834 0.42,-1.096 0.986,-2.109 1.729,-3.024 0.654,-0.808 1.287,-1.631 1.929,-2.445 z"
   fill="#f9f6f3"
   clip-rule="evenodd"
   fill-rule="evenodd" />
					<path
   id="path82"
   d="m 277.578,122.154 c -0.385,0.833 -0.697,1.683 -0.879,2.579 -0.525,2.593 -0.143,5.076 1.068,7.399 2.207,4.231 5.693,6.815 10.377,7.729 2.754,0.536 5.404,0.177 7.879,-1.211 1.184,-0.664 2.178,-1.551 2.982,-2.648 0.02,-0.027 0.039,-0.054 0.1,-0.061 -0.053,0.14 -0.098,0.283 -0.16,0.419 -1.592,3.495 -4.271,5.645 -8.021,6.444 -2.023,0.432 -4.068,0.399 -6.084,-0.015 -1.432,-0.294 -2.756,-0.934 -3.994,-1.719 -2.834,-1.798 -4.914,-4.221 -5.969,-7.433 -0.91,-2.772 -0.869,-5.534 0.486,-8.173 0.451,-0.876 1.08,-1.662 1.631,-2.487 0.188,-0.279 0.389,-0.549 0.584,-0.823 z"
   fill="#f9f6f3"
   clip-rule="evenodd"
   fill-rule="evenodd" />
					<path
   id="path84"
   d="m 298.01,129.667 c -1.27,2.42 -3.23,3.729 -5.992,3.859 -4.236,0.2 -7.705,-2.818 -8.717,-6.002 -0.697,-2.197 -0.428,-4.26 0.939,-6.147 0.211,-0.291 0.422,-0.58 0.627,-0.861 -0.15,0.52 -0.344,1.031 -0.445,1.561 -0.313,1.633 0.025,3.176 0.799,4.617 1.441,2.687 3.688,4.281 6.693,4.799 1.236,0.214 2.465,0.229 3.674,-0.163 0.971,-0.316 1.769,-0.884 2.422,-1.663 z"
   fill="#f9f6f3"
   clip-rule="evenodd"
   fill-rule="evenodd" />
				</g>
			</g>
		</g><g
   transform="translate(-469.87382,-16.561514)"
   id="oGv5No_1_">
			<g
   id="g99">
				<g
   id="g97">
					<path
   id="path91"
   d="m 333.471,145.602 c -0.975,0 -1.916,0 -2.883,0 0.854,-4.399 1.705,-8.778 2.557,-13.16 0.082,-0.008 0.139,-0.019 0.195,-0.019 1.934,0.001 3.867,-0.018 5.799,0.02 0.555,0.011 1.125,0.121 1.652,0.291 1.443,0.465 2.314,1.635 2.35,3.153 0.047,2.069 -0.695,3.792 -2.346,5.088 -0.982,0.771 -2.129,1.064 -3.346,1.108 -1,0.036 -2.002,0.025 -3.002,0.02 -0.229,0 -0.313,0.066 -0.355,0.301 -0.192,1.06 -0.408,2.117 -0.621,3.198 z m 1.08,-5.542 c 0.99,-0.039 1.912,-0.027 2.822,-0.122 1.119,-0.116 1.977,-0.675 2.371,-1.776 0.172,-0.481 0.303,-0.99 0.363,-1.499 0.146,-1.286 -0.316,-1.945 -1.523,-2.077 -0.967,-0.105 -1.947,-0.084 -2.945,-0.121 -0.364,1.871 -0.717,3.691 -1.088,5.595 z"
   fill="#f9f6f3"
   clip-rule="evenodd"
   fill-rule="evenodd" />
					<path
   id="path93"
   d="m 355.914,145.603 c -0.973,0 -1.914,0 -2.885,0 0.854,-4.396 1.705,-8.771 2.559,-13.166 0.113,-0.005 0.215,-0.015 0.316,-0.015 1.76,0 3.518,-0.017 5.277,0.009 0.58,0.009 1.174,0.069 1.736,0.21 1.719,0.433 2.684,1.691 2.67,3.46 -0.018,2.002 -0.779,3.657 -2.381,4.896 -0.977,0.756 -2.113,1.042 -3.316,1.085 -1,0.036 -2.002,0.025 -3,0.02 -0.229,0 -0.314,0.066 -0.355,0.301 -0.191,1.061 -0.408,2.117 -0.621,3.2 z m 1.08,-5.545 c 0.986,-0.037 1.908,-0.024 2.82,-0.12 1.26,-0.132 2.117,-0.824 2.479,-2.065 0.107,-0.374 0.203,-0.755 0.254,-1.139 0.176,-1.314 -0.318,-2.047 -1.553,-2.15 -0.957,-0.08 -1.926,-0.016 -2.932,-0.016 -0.343,1.767 -0.697,3.586 -1.068,5.49 z"
   fill="#f9f6f3"
   clip-rule="evenodd"
   fill-rule="evenodd" />
					<path
   id="path95"
   d="m 346.883,134.574 c -0.486,2.5 -0.973,4.998 -1.463,7.513 -0.951,0 -1.889,0 -2.863,0 0.854,-4.397 1.705,-8.774 2.559,-13.163 0.959,0 1.898,0 2.861,0 -0.223,1.161 -0.443,2.306 -0.674,3.497 0.27,0 0.518,-0.004 0.766,0 1.047,0.024 2.094,0.014 3.135,0.094 0.48,0.036 0.969,0.2 1.416,0.394 0.77,0.334 1.184,0.99 1.15,1.808 -0.035,0.865 -0.184,1.731 -0.338,2.587 -0.273,1.524 -0.584,3.042 -0.893,4.561 -0.018,0.091 -0.135,0.23 -0.207,0.232 -0.896,0.016 -1.791,0.011 -2.734,0.011 0.148,-0.771 0.289,-1.509 0.43,-2.245 0.248,-1.308 0.52,-2.612 0.734,-3.926 0.148,-0.906 -0.145,-1.293 -1.057,-1.351 -0.926,-0.058 -1.859,-0.012 -2.822,-0.012 z"
   fill="#f9f6f3"
   clip-rule="evenodd"
   fill-rule="evenodd" />
				</g>
			</g>
		</g><g
   transform="translate(-469.87382,-16.561514)"
   id="_x34_finyx_1_">
			<g
   id="g106">
				<g
   id="g104">
					<path
   id="path102"
   d="m 37.095,132.281 c -0.167,1.869 -0.327,3.65 -0.486,5.433 -0.238,2.658 -0.479,5.315 -0.715,7.971 -0.156,1.748 -0.294,3.496 -0.473,5.242 -0.018,0.17 -0.235,0.414 -0.405,0.461 -4.021,1.131 -8.047,2.242 -12.076,3.346 -0.178,0.048 -0.396,0.035 -0.577,-0.016 -3.992,-1.098 -7.982,-2.201 -11.968,-3.32 -0.164,-0.046 -0.391,-0.241 -0.404,-0.385 -0.298,-3.092 -0.57,-6.188 -0.845,-9.279 -0.003,-0.033 0.022,-0.068 0.046,-0.137 2.027,0 4.065,0 6.145,0 0.124,1.411 0.268,2.788 0.355,4.169 0.034,0.546 0.195,0.812 0.775,0.952 1.949,0.473 3.878,1.03 5.819,1.535 0.251,0.064 0.548,0.068 0.798,0.004 2.012,-0.523 4.015,-1.08 6.029,-1.6 0.385,-0.1 0.508,-0.27 0.541,-0.659 0.186,-2.257 0.406,-4.512 0.608,-6.768 0.021,-0.232 0.003,-0.468 0.003,-0.75 -7.123,0 -14.229,0 -21.417,0 -0.557,-6.25 -1.111,-12.461 -1.669,-18.717 10.359,0 20.645,0 31.026,0 -0.183,2.037 -0.365,4.06 -0.554,6.15 -7.911,0 -15.78,0 -23.716,0 0.194,2.159 0.38,4.239 0.572,6.367 7.538,0.001 15.027,0.001 22.588,0.001 z"
   fill="#f9f6f3"
   clip-rule="evenodd"
   fill-rule="evenodd" />
				</g>
			</g>
		</g><g
   transform="translate(-469.87382,-16.561514)"
   id="g111">
			<path
   id="path109"
   d="m 426.484,136.529 c -0.09,0.204 -0.145,0.301 -0.18,0.404 -0.83,2.419 -1.662,4.837 -2.488,7.258 -0.303,0.891 -0.574,1.794 -0.889,2.682 -0.674,1.911 -1.369,3.813 -2.051,5.723 -0.094,0.265 -0.258,0.39 -0.543,0.38 -0.311,-0.012 -0.621,-0.01 -0.934,-0.001 -0.297,0.009 -0.465,-0.132 -0.563,-0.407 -0.625,-1.746 -1.25,-3.492 -1.883,-5.234 -1.027,-2.825 -2.064,-5.646 -3.094,-8.472 -0.801,-2.198 -1.594,-4.397 -2.389,-6.596 -0.592,-1.635 -1.186,-3.271 -1.773,-4.907 -0.094,-0.262 -0.26,-0.392 -0.541,-0.386 -0.334,0.006 -0.67,0.014 -1.002,-0.008 -0.684,-0.044 -1.094,-0.405 -1.111,-0.955 -0.014,-0.446 0.201,-0.792 0.627,-0.928 0.227,-0.072 0.473,-0.109 0.711,-0.111 1.338,-0.011 2.674,0.02 4.01,-0.013 1.414,-0.035 2.826,-0.127 4.238,-0.192 0.186,-0.008 0.369,-0.016 0.553,-0.005 0.395,0.022 0.633,0.272 0.65,0.666 0.021,0.446 -0.189,0.731 -0.604,0.779 -0.525,0.06 -1.053,0.105 -1.58,0.144 -0.377,0.028 -0.441,0.088 -0.33,0.441 0.283,0.901 0.576,1.799 0.877,2.695 1.213,3.627 2.432,7.254 3.648,10.88 0.535,1.595 1.076,3.188 1.617,4.781 0.047,0.135 0.121,0.26 0.23,0.49 0.107,-0.221 0.182,-0.34 0.223,-0.471 0.533,-1.631 1.051,-3.269 1.594,-4.897 0.627,-1.879 1.271,-3.753 1.924,-5.625 0.146,-0.425 0.131,-0.798 -0.031,-1.229 -0.705,-1.852 -1.363,-3.721 -2.039,-5.583 -0.143,-0.389 -0.246,-0.799 -0.443,-1.158 -0.088,-0.159 -0.354,-0.267 -0.557,-0.304 -0.451,-0.083 -0.914,-0.104 -1.371,-0.157 -0.506,-0.058 -0.73,-0.301 -0.711,-0.757 0.02,-0.465 0.283,-0.715 0.805,-0.693 1.068,0.047 2.135,0.146 3.201,0.176 0.932,0.027 1.865,-10e-4 2.797,-0.022 0.689,-0.015 1.379,-0.059 2.068,-0.091 0.459,-0.021 0.918,-0.061 1.379,-0.063 0.502,-0.002 0.756,0.219 0.785,0.637 0.035,0.486 -0.172,0.741 -0.686,0.81 -0.525,0.069 -1.051,0.118 -1.578,0.171 -0.277,0.028 -0.373,0.132 -0.271,0.429 0.625,1.819 1.238,3.643 1.848,5.467 0.271,0.809 0.521,1.624 0.793,2.433 0.969,2.895 1.943,5.789 2.914,8.684 0.184,0.546 0.35,1.098 0.527,1.646 0.039,0.116 0.094,0.228 0.182,0.438 0.098,-0.195 0.172,-0.302 0.209,-0.419 0.398,-1.274 0.785,-2.554 1.188,-3.827 0.43,-1.362 0.898,-2.712 1.307,-4.081 0.607,-2.042 0.732,-4.096 0.018,-6.149 -0.398,-1.143 -1.059,-2.144 -1.682,-3.167 -0.432,-0.711 -0.832,-1.439 -0.984,-2.269 -0.252,-1.364 0.068,-2.545 1.203,-3.414 1.336,-1.023 3.564,-0.689 4.611,0.64 0.67,0.853 0.938,1.842 1.037,2.885 0.205,2.138 0.086,4.262 -0.494,6.333 -0.352,1.252 -0.801,2.477 -1.223,3.708 -0.52,1.526 -1.059,3.047 -1.588,4.57 -0.303,0.87 -0.611,1.739 -0.904,2.613 -0.385,1.151 -0.736,2.315 -1.137,3.461 -0.707,2.026 -1.438,4.044 -2.168,6.062 -0.182,0.498 -0.285,0.549 -0.828,0.549 -1.068,0 -0.986,0.082 -1.369,-0.921 -0.785,-2.056 -1.555,-4.116 -2.309,-6.183 -1.094,-2.988 -2.168,-5.983 -3.252,-8.975 -0.032,-0.092 -0.09,-0.175 -0.194,-0.365 z"
   fill="#f9f6f3"
   clip-rule="evenodd"
   fill-rule="evenodd" />
		</g><g
   transform="translate(-469.87382,-16.561514)"
   id="g115">
			<path
   id="path113"
   d="m 138.094,50 c 0.397,0.231 0.428,0.488 0.096,0.82 -3.001,3.001 -6.002,6.003 -9.004,9.004 -0.055,0.054 -0.121,0.096 -0.249,0.196 0.118,0.077 0.199,0.113 0.258,0.171 3.004,3 6.005,6.001 9.004,9.005 0.084,0.084 0.166,0.189 0.197,0.3 0.054,0.188 -0.025,0.347 -0.197,0.447 -0.163,0.095 -0.349,0.068 -0.5,-0.079 -0.371,-0.365 -0.738,-0.734 -1.106,-1.103 -2.785,-2.784 -5.57,-5.569 -8.354,-8.355 -0.315,-0.316 -0.316,-0.493 -0.005,-0.806 3.126,-3.125 6.251,-6.251 9.378,-9.375 0.086,-0.086 0.191,-0.151 0.288,-0.227 C 137.964,50 138.029,50 138.094,50 Z"
   fill="#484848"
   clip-rule="evenodd"
   fill-rule="evenodd" />
		</g><g
   transform="translate(-469.87382,-16.561514)"
   id="g119">
			<path
   id="path117"
   d="m 204.979,70 c -0.397,-0.23 -0.428,-0.488 -0.096,-0.82 3.001,-3.001 6.002,-6.002 9.004,-9.003 0.055,-0.054 0.121,-0.096 0.249,-0.196 -0.118,-0.077 -0.199,-0.113 -0.258,-0.171 -3.004,-3 -6.005,-6.001 -9.004,-9.005 -0.084,-0.084 -0.166,-0.19 -0.197,-0.301 -0.054,-0.187 0.025,-0.347 0.197,-0.447 0.163,-0.095 0.349,-0.069 0.5,0.079 0.371,0.365 0.738,0.734 1.106,1.103 2.785,2.785 5.57,5.57 8.354,8.355 0.315,0.316 0.316,0.493 0.005,0.805 -3.126,3.125 -6.251,6.252 -9.378,9.375 -0.086,0.086 -0.191,0.152 -0.288,0.227 C 205.108,70 205.043,70 204.979,70 Z"
   fill="#484848"
   clip-rule="evenodd"
   fill-rule="evenodd" />
		</g><g
   transform="translate(-469.87382,-16.561514)"
   id="g129">
			<path
   id="path121"
   d="m 179.197,64.611 c 0,0.965 -0.006,1.931 0.005,2.896 0.003,0.214 -0.067,0.264 -0.271,0.264 -1.915,-0.006 -3.829,-0.007 -5.743,0.002 -0.237,0.002 -0.312,-0.059 -0.311,-0.305 0.011,-1.914 0.01,-3.829 10e-4,-5.743 -10e-4,-0.229 0.068,-0.278 0.285,-0.277 1.923,0.008 3.846,0.008 5.768,10e-4 0.206,-0.002 0.274,0.053 0.272,0.265 -0.011,0.966 -0.004,1.931 -0.004,2.897 -0.001,0 -0.001,0 -0.002,0 z"
   fill="#484848"
   clip-rule="evenodd"
   fill-rule="evenodd" />
			<path
   id="path123"
   d="m 172.897,58.502 c 0,-2.097 0,-4.175 0,-6.268 2.095,0 4.173,0 6.276,0 0,2.082 0,4.165 0,6.268 -2.082,0 -4.167,0 -6.276,0 z"
   fill="#484848"
   clip-rule="evenodd"
   fill-rule="evenodd" />
			<path
   id="path125"
   d="m 169.942,61.476 c 0,2.093 0,4.173 0,6.273 -2.094,0 -4.178,0 -6.277,0 0,-2.092 0,-4.17 0,-6.273 2.082,0 4.164,0 6.277,0 z"
   fill="#484848"
   clip-rule="evenodd"
   fill-rule="evenodd" />
			<path
   id="path127"
   d="m 163.668,52.226 c 2.096,0 4.167,0 6.262,0 0,2.089 0,4.172 0,6.276 -2.076,0 -4.16,0 -6.262,0 0,-2.084 0,-4.168 0,-6.276 z"
   fill="#484848"
   clip-rule="evenodd"
   fill-rule="evenodd" />
		</g><g
   transform="translate(-469.87382,-16.561514)"
   id="g133">
			<path
   id="path131"
   d="m 290.399,56.763 c -1.455,0.704 -2.895,1.401 -4.332,2.098 -0.449,0.218 -0.895,0.438 -1.346,0.653 -0.104,0.047 -0.139,0.097 -0.125,0.219 0.025,0.146 0.031,0.303 0.008,0.448 -0.025,0.156 0.01,0.227 0.154,0.296 1.834,0.891 3.662,1.789 5.488,2.687 0.111,0.055 0.182,0.057 0.287,-0.035 0.816,-0.733 1.768,-0.947 2.801,-0.568 1.029,0.377 1.629,1.143 1.779,2.236 0.197,1.468 -0.871,2.863 -2.322,3.05 -1.539,0.2 -2.924,-0.846 -3.109,-2.36 -0.021,-0.196 -0.033,-0.397 -0.012,-0.593 0.014,-0.134 -0.02,-0.193 -0.135,-0.25 -0.91,-0.439 -1.818,-0.886 -2.729,-1.33 -0.93,-0.454 -1.852,-0.906 -2.777,-1.365 -0.121,-0.06 -0.197,-0.052 -0.305,0.042 -0.887,0.777 -1.895,0.962 -2.973,0.48 -1.066,-0.477 -1.627,-1.354 -1.613,-2.522 0.008,-1.149 0.576,-2.011 1.631,-2.473 1.049,-0.46 2.045,-0.29 2.922,0.462 0.139,0.116 0.229,0.137 0.391,0.057 1.803,-0.884 3.609,-1.76 5.422,-2.631 0.141,-0.068 0.174,-0.132 0.156,-0.291 -0.107,-1.371 0.844,-2.616 2.189,-2.885 1.73,-0.344 3.355,0.997 3.285,2.753 -0.043,1.157 -0.613,2.011 -1.689,2.458 -1.063,0.444 -2.049,0.241 -2.914,-0.518 -0.04,-0.034 -0.081,-0.072 -0.132,-0.118 z"
   fill="#484848"
   clip-rule="evenodd"
   fill-rule="evenodd" />
		</g><g
   transform="translate(-469.87382,-16.561514)"
   id="g137">
			<path
   id="path135"
   d="m 322.462,54.271 c 0.217,-0.237 0.416,-0.48 0.645,-0.689 2.572,-2.366 6.746,-1.157 7.699,2.218 0.328,1.165 0.158,2.252 -0.404,3.306 -0.621,1.17 -1.424,2.209 -2.293,3.2 -1.678,1.907 -3.537,3.62 -5.488,5.24 -0.043,0.037 -0.092,0.07 -0.158,0.119 -0.371,-0.315 -0.744,-0.623 -1.111,-0.94 -1.764,-1.537 -3.463,-3.145 -4.963,-4.948 -0.76,-0.91 -1.439,-1.871 -1.975,-2.936 -0.998,-1.979 -0.168,-4.132 1.137,-5.285 0.906,-0.803 1.975,-1.219 3.18,-1.21 1.475,0.011 2.67,0.625 3.6,1.76 0.041,0.054 0.082,0.109 0.131,0.165 z m -0.022,2.279 c -0.027,-0.031 -0.063,-0.083 -0.105,-0.135 -0.592,-0.777 -1.268,-1.469 -2.131,-1.947 -1.295,-0.717 -2.787,-0.494 -3.75,0.6 -0.691,0.783 -0.988,1.697 -0.633,2.729 0.234,0.696 0.654,1.3 1.096,1.886 1.576,2.117 3.461,3.935 5.441,5.667 0.121,0.105 0.182,0.041 0.266,-0.029 1.598,-1.349 3.107,-2.785 4.459,-4.378 0.699,-0.82 1.355,-1.673 1.844,-2.639 0.293,-0.573 0.412,-1.164 0.293,-1.809 -0.305,-1.609 -1.969,-2.727 -3.566,-2.383 -0.754,0.163 -1.396,0.551 -1.945,1.075 -0.44,0.425 -0.837,0.898 -1.269,1.363 z"
   fill="#484848"
   clip-rule="evenodd"
   fill-rule="evenodd" />
		</g><g
   transform="translate(-469.87382,-16.561514)"
   id="g141">
			<path
   id="path139"
   d="m 247.02,53.009 c 0.104,0.078 0.221,0.144 0.314,0.235 2.619,2.615 5.232,5.232 7.852,7.849 0.219,0.223 0.256,0.382 0.141,0.62 -0.098,0.197 -0.256,0.28 -0.475,0.28 -0.924,-0.004 -1.855,-0.002 -2.779,-0.002 -0.051,0 -0.096,0 -0.166,0 0.053,0.131 0.098,0.244 0.148,0.355 0.459,1.095 0.924,2.19 1.383,3.284 0.15,0.355 0.051,0.609 -0.301,0.759 -0.42,0.178 -0.834,0.355 -1.256,0.531 -0.334,0.143 -0.6,0.035 -0.74,-0.302 -0.465,-1.099 -0.928,-2.197 -1.391,-3.296 -0.023,-0.048 -0.045,-0.097 -0.113,-0.181 -0.025,0.044 -0.039,0.096 -0.074,0.131 -0.76,0.763 -1.525,1.524 -2.283,2.287 -0.164,0.166 -0.352,0.222 -0.57,0.137 -0.211,-0.083 -0.314,-0.239 -0.314,-0.478 -0.002,-0.937 -0.002,-1.873 -0.002,-2.81 0,-2.919 0.006,-5.838 -0.002,-8.757 -0.002,-0.31 0.09,-0.528 0.383,-0.642 0.082,0 0.163,0 0.245,0 z"
   fill="#484848"
   clip-rule="evenodd"
   fill-rule="evenodd" />
		</g><g
   transform="translate(-469.87382,-16.561514)"
   id="g145">
			<path
   id="path143"
   d="m 365.194,51.448 c 0.397,0.231 0.428,0.488 0.096,0.82 -3.001,3.002 -6.002,6.003 -9.004,9.004 -0.055,0.055 -0.121,0.096 -0.249,0.196 0.118,0.077 0.199,0.112 0.258,0.171 3.004,3 6.005,6.002 9.004,9.006 0.084,0.084 0.166,0.189 0.197,0.299 0.054,0.188 -0.025,0.348 -0.197,0.447 -0.163,0.096 -0.349,0.068 -0.5,-0.078 -0.371,-0.365 -0.738,-0.734 -1.106,-1.104 -2.785,-2.783 -5.57,-5.568 -8.354,-8.354 -0.315,-0.316 -0.316,-0.493 -0.005,-0.806 3.126,-3.125 6.251,-6.251 9.378,-9.375 0.086,-0.086 0.191,-0.151 0.288,-0.227 0.064,10e-4 0.13,10e-4 0.194,10e-4 z"
   fill="#ffffff"
   clip-rule="evenodd"
   fill-rule="evenodd" />
		</g>
</svg>
