<?xml version="1.0" encoding="UTF-8" standalone="no"?>
<svg
   xmlns:dc="http://purl.org/dc/elements/1.1/"
   xmlns:cc="http://creativecommons.org/ns#"
   xmlns:rdf="http://www.w3.org/1999/02/22-rdf-syntax-ns#"
   xmlns:svg="http://www.w3.org/2000/svg"
   xmlns="http://www.w3.org/2000/svg"
   id="svg371"
   version="1.1"
   viewBox="0 0 6.6145833 6.6145833"
   height="25"
   width="25">
  <defs
     id="defs365" />
  <metadata
     id="metadata368">
    <rdf:RDF>
      <cc:Work
         rdf:about="">
        <dc:format>image/svg+xml</dc:format>
        <dc:type
           rdf:resource="http://purl.org/dc/dcmitype/StillImage" />
        <dc:title></dc:title>
      </cc:Work>
    </rdf:RDF>
  </metadata>
  <g
     id="layer1">
    <g
       transform="matrix(0.26458333,0,0,0.26458333,-58.561739,-0.22415404)"
       style="fill:#484848;fill-opacity:1"
       id="g18">
      <path
         style="fill:#484848;fill-opacity:1"
         id="path10"
         d="m 224.613,7.039 c 6.314,0 12.51,0 18.818,0 -3.178,2.552 -6.279,5.042 -9.408,7.557 -3.115,-2.503 -6.22,-4.997 -9.41,-7.557 z"
         fill="#f2f2f2"
         clip-rule="evenodd"
         fill-rule="evenodd" />
      <path
         style="fill:#484848;fill-opacity:1"
         id="path12"
         d="m 224.025,20.362 c 2.803,-1.81 5.51,-3.556 8.254,-5.327 0.574,0.556 1.145,1.107 1.791,1.729 0.547,-0.615 1.066,-1.201 1.596,-1.794 2.827,1.825 5.543,3.575 8.355,5.391 -6.701,10e-4 -13.279,10e-4 -19.996,10e-4 z"
         fill="#f2f2f2"
         clip-rule="evenodd"
         fill-rule="evenodd" />
      <path
         style="fill:#484848;fill-opacity:1"
         id="path14"
         d="m 244.025,7.029 c 0,4.191 0,8.296 0,12.485 -2.445,-1.82 -4.85,-3.609 -7.289,-5.422 2.438,-2.359 4.836,-4.685 7.289,-7.063 z"
         fill="#f2f2f2"
         clip-rule="evenodd"
         fill-rule="evenodd" />
      <path
         style="fill:#484848;fill-opacity:1"
         id="path16"
         d="m 224.018,19.518 c 0,-4.188 0,-8.292 0,-12.49 2.451,2.375 4.851,4.699 7.291,7.063 -2.426,1.805 -4.827,3.591 -7.291,5.427 z"
         fill="#f2f2f2"
         clip-rule="evenodd"
         fill-rule="evenodd" />
    </g>
  </g>
</svg>
