<?xml version="1.0" encoding="UTF-8" standalone="no"?>
<svg
   xmlns:dc="http://purl.org/dc/elements/1.1/"
   xmlns:cc="http://creativecommons.org/ns#"
   xmlns:rdf="http://www.w3.org/1999/02/22-rdf-syntax-ns#"
   xmlns:svg="http://www.w3.org/2000/svg"
   xmlns="http://www.w3.org/2000/svg"
   xml:space="preserve"
   enable-background="new 0 0 110 110"
   viewBox="0 0 110 110"
   height="110px"
   width="110px"
   y="0px"
   x="0px"
   id="Layer_1"
   version="1.1"><metadata
   id="metadata35"><rdf:RDF><cc:Work
       rdf:about=""><dc:format>image/svg+xml</dc:format><dc:type
         rdf:resource="http://purl.org/dc/dcmitype/StillImage" /><dc:title></dc:title></cc:Work></rdf:RDF></metadata><defs
   id="defs33">
	
	

		
	
			
			
			
		</defs>
<g
   id="g14">
				<g
   id="g12">
					<path
   fill="#fffefe"
   d="m 52.62,58.594 -2.958,4.104 0.148,0.148 4.23,-2.884 16.337,-7.538 4.612,4.638 -29.394,12.368 -3.134,-3.152 12.599,-29.255 5.086,5.114 z"
   id="path10" />
				</g>
			</g><g
   id="g18">
				<polygon
   fill="#fee000"
   points="26.422,73.098 31.672,67.908 26.35,62.555 62.59,26.741 67.911,32.093 73.279,26.788 52.788,6.182 47.421,11.488 52.743,16.84 16.504,52.654 11.182,47.303 5.931,52.492 "
   id="polygon16" />
			</g><g
   id="g22">
				<polygon
   fill="#fffefe"
   points="70.303,61.662 61.578,70.285 68.032,76.775 57.43,87.254 57.39,87.213 53.962,90.601 32.674,69.193 27.376,74.429 58.954,106.182 105.932,59.756 74.699,28.351 69.227,33.76 90.193,54.843 86.942,58.057 86.957,58.072 76.758,68.153 "
   id="polygon20" />
			</g>
</svg>
