<?xml version="1.0" encoding="UTF-8" standalone="no"?>
<svg
   xmlns:dc="http://purl.org/dc/elements/1.1/"
   xmlns:cc="http://creativecommons.org/ns#"
   xmlns:rdf="http://www.w3.org/1999/02/22-rdf-syntax-ns#"
   xmlns:svg="http://www.w3.org/2000/svg"
   xmlns="http://www.w3.org/2000/svg"
   id="svg371"
   version="1.1"
   viewBox="0 0 6.6145833 6.6145833"
   height="25"
   width="25">
  <defs
     id="defs365" />
  <metadata
     id="metadata368">
    <rdf:RDF>
      <cc:Work
         rdf:about="">
        <dc:format>image/svg+xml</dc:format>
        <dc:type
           rdf:resource="http://purl.org/dc/dcmitype/StillImage" />
        <dc:title></dc:title>
      </cc:Work>
    </rdf:RDF>
  </metadata>
  <g
     id="layer1">
    <g
       transform="matrix(0.26458333,0,0,0.26458333,-0.36583317,-0.24763546)"
       style="fill:#484848;fill-opacity:1"
       id="g28">
      <path
         style="fill:#484848;fill-opacity:1"
         id="path22"
         d="m 15.281,12.267 c 0.363,-0.391 0.633,-0.714 0.936,-1 1.648,-1.553 5.664,-1.431 6.864,1.664 0.271,0.697 0.463,1.468 0.481,2.211 0.063,2.471 0.027,4.944 0.039,7.417 0.001,0.311 -0.102,0.439 -0.425,0.436 -1.032,-0.012 -2.064,-0.014 -3.097,0.002 -0.354,0.005 -0.435,-0.152 -0.434,-0.469 0.009,-1.997 0.013,-3.994 -0.003,-5.991 -0.003,-0.473 -0.051,-0.952 -0.144,-1.414 -0.163,-0.803 -0.596,-1.421 -1.446,-1.583 -0.946,-0.181 -1.743,0.104 -2.32,0.913 -0.375,0.524 -0.449,1.127 -0.45,1.744 -0.002,2.065 0,4.131 0,6.196 -0.002,0.596 -0.002,0.597 -0.58,0.598 -0.979,0.002 -1.956,-0.007 -2.935,0.004 -0.31,0.004 -0.437,-0.1 -0.437,-0.423 0.006,-3.831 0.006,-7.663 0,-11.494 0,-0.311 0.104,-0.438 0.426,-0.435 1.032,0.012 2.064,0.012 3.097,0 0.314,-0.004 0.446,0.11 0.431,0.429 -0.014,0.363 -0.003,0.727 -0.003,1.195 z"
         fill="#f2f2f2"
         clip-rule="evenodd"
         fill-rule="evenodd" />
      <path
         style="fill:#484848;fill-opacity:1"
         id="path24"
         d="m 8.923,16.821 c 10e-4,1.888 -0.009,3.776 0.008,5.663 0.003,0.392 -0.127,0.522 -0.516,0.514 C 7.424,22.976 6.433,22.978 5.44,22.997 5.082,23.003 4.97,22.872 4.97,22.521 c 0.01,-3.804 0.01,-7.606 0,-11.409 0,-0.356 0.121,-0.478 0.475,-0.472 1.004,0.018 2.01,0.018 3.014,0 0.359,-0.007 0.472,0.124 0.47,0.476 -0.011,1.902 -0.006,3.803 -0.006,5.705 z"
         fill="#f2f2f2"
         clip-rule="evenodd"
         fill-rule="evenodd" />
      <path
         style="fill:#484848;fill-opacity:1"
         id="path26"
         d="M 7.038,8.64 C 5.799,8.635 4.928,7.773 4.923,6.544 4.917,5.295 5.831,4.39 7.09,4.392 8.346,4.395 9.239,5.306 9.226,6.572 9.212,7.803 8.321,8.646 7.038,8.64 Z"
         fill="#f2f2f2"
         clip-rule="evenodd"
         fill-rule="evenodd" />
    </g>
  </g>
</svg>
