<?xml version="1.0" encoding="UTF-8" standalone="no"?>
<svg
   xmlns:dc="http://purl.org/dc/elements/1.1/"
   xmlns:cc="http://creativecommons.org/ns#"
   xmlns:rdf="http://www.w3.org/1999/02/22-rdf-syntax-ns#"
   xmlns:svg="http://www.w3.org/2000/svg"
   xmlns="http://www.w3.org/2000/svg"
   id="svg371"
   version="1.1"
   viewBox="0 0 7.9374999 4.7625"
   height="18"
   width="30">
  <defs
     id="defs365" />
  <metadata
     id="metadata368">
    <rdf:RDF>
      <cc:Work
         rdf:about="">
        <dc:format>image/svg+xml</dc:format>
        <dc:type
           rdf:resource="http://purl.org/dc/dcmitype/StillImage" />
        <dc:title></dc:title>
      </cc:Work>
    </rdf:RDF>
  </metadata>
  <g
     id="layer1">
    <g
       style="fill:#484848;fill-opacity:1"
       id="oGv5No_1_"
       transform="matrix(0.21705287,0,0,0.21705287,-71.518544,-27.303841)">
      <g
         style="fill:#484848;fill-opacity:1"
         id="g99">
        <g
           style="fill:#484848;fill-opacity:1"
           id="g97">
          <path
             style="fill:#484848;fill-opacity:1"
             id="path91"
             d="m 333.471,145.602 c -0.975,0 -1.916,0 -2.883,0 0.854,-4.399 1.705,-8.778 2.557,-13.16 0.082,-0.008 0.139,-0.019 0.195,-0.019 1.934,0.001 3.867,-0.018 5.799,0.02 0.555,0.011 1.125,0.121 1.652,0.291 1.443,0.465 2.314,1.635 2.35,3.153 0.047,2.069 -0.695,3.792 -2.346,5.088 -0.982,0.771 -2.129,1.064 -3.346,1.108 -1,0.036 -2.002,0.025 -3.002,0.02 -0.229,0 -0.313,0.066 -0.355,0.301 -0.192,1.06 -0.408,2.117 -0.621,3.198 z m 1.08,-5.542 c 0.99,-0.039 1.912,-0.027 2.822,-0.122 1.119,-0.116 1.977,-0.675 2.371,-1.776 0.172,-0.481 0.303,-0.99 0.363,-1.499 0.146,-1.286 -0.316,-1.945 -1.523,-2.077 -0.967,-0.105 -1.947,-0.084 -2.945,-0.121 -0.364,1.871 -0.717,3.691 -1.088,5.595 z"
             fill="#f9f6f3"
             clip-rule="evenodd"
             fill-rule="evenodd" />
          <path
             style="fill:#484848;fill-opacity:1"
             id="path93"
             d="m 355.914,145.603 c -0.973,0 -1.914,0 -2.885,0 0.854,-4.396 1.705,-8.771 2.559,-13.166 0.113,-0.005 0.215,-0.015 0.316,-0.015 1.76,0 3.518,-0.017 5.277,0.009 0.58,0.009 1.174,0.069 1.736,0.21 1.719,0.433 2.684,1.691 2.67,3.46 -0.018,2.002 -0.779,3.657 -2.381,4.896 -0.977,0.756 -2.113,1.042 -3.316,1.085 -1,0.036 -2.002,0.025 -3,0.02 -0.229,0 -0.314,0.066 -0.355,0.301 -0.191,1.061 -0.408,2.117 -0.621,3.2 z m 1.08,-5.545 c 0.986,-0.037 1.908,-0.024 2.82,-0.12 1.26,-0.132 2.117,-0.824 2.479,-2.065 0.107,-0.374 0.203,-0.755 0.254,-1.139 0.176,-1.314 -0.318,-2.047 -1.553,-2.15 -0.957,-0.08 -1.926,-0.016 -2.932,-0.016 -0.343,1.767 -0.697,3.586 -1.068,5.49 z"
             fill="#f9f6f3"
             clip-rule="evenodd"
             fill-rule="evenodd" />
          <path
             style="fill:#484848;fill-opacity:1"
             id="path95"
             d="m 346.883,134.574 c -0.486,2.5 -0.973,4.998 -1.463,7.513 -0.951,0 -1.889,0 -2.863,0 0.854,-4.397 1.705,-8.774 2.559,-13.163 0.959,0 1.898,0 2.861,0 -0.223,1.161 -0.443,2.306 -0.674,3.497 0.27,0 0.518,-0.004 0.766,0 1.047,0.024 2.094,0.014 3.135,0.094 0.48,0.036 0.969,0.2 1.416,0.394 0.77,0.334 1.184,0.99 1.15,1.808 -0.035,0.865 -0.184,1.731 -0.338,2.587 -0.273,1.524 -0.584,3.042 -0.893,4.561 -0.018,0.091 -0.135,0.23 -0.207,0.232 -0.896,0.016 -1.791,0.011 -2.734,0.011 0.148,-0.771 0.289,-1.509 0.43,-2.245 0.248,-1.308 0.52,-2.612 0.734,-3.926 0.148,-0.906 -0.145,-1.293 -1.057,-1.351 -0.926,-0.058 -1.859,-0.012 -2.822,-0.012 z"
             fill="#f9f6f3"
             clip-rule="evenodd"
             fill-rule="evenodd" />
        </g>
      </g>
    </g>
  </g>
</svg>
