<?xml version="1.0" encoding="UTF-8" standalone="no"?>
<svg
   xmlns:dc="http://purl.org/dc/elements/1.1/"
   xmlns:cc="http://creativecommons.org/ns#"
   xmlns:rdf="http://www.w3.org/1999/02/22-rdf-syntax-ns#"
   xmlns:svg="http://www.w3.org/2000/svg"
   xmlns="http://www.w3.org/2000/svg"
   id="svg371"
   version="1.1"
   viewBox="0 0 7.9374999 7.4083333"
   height="28"
   width="30">
  <defs
     id="defs365" />
  <metadata
     id="metadata368">
    <rdf:RDF>
      <cc:Work
         rdf:about="">
        <dc:format>image/svg+xml</dc:format>
        <dc:type
           rdf:resource="http://purl.org/dc/dcmitype/StillImage" />
        <dc:title></dc:title>
      </cc:Work>
    </rdf:RDF>
  </metadata>
  <g
     id="layer1">
    <g
       style="fill:#484848;fill-opacity:1"
       id="gkBZsQ_1_"
       transform="matrix(0.21062012,0,0,0.21062012,-17.882191,-25.055602)">
      <g
         style="fill:#484848;fill-opacity:1"
         id="g68">
        <g
           style="fill:#484848;fill-opacity:1"
           id="g66">
          <path
             style="fill:#484848;fill-opacity:1"
             id="path64"
             d="m 86.708,147.898 c 0,-0.068 0,-0.137 0,-0.205 0.021,-0.039 0.053,-0.076 0.061,-0.118 0.211,-1.059 0.418,-2.118 0.628,-3.178 0.235,-1.19 0.472,-2.381 0.709,-3.574 1.964,0 3.902,0 5.875,0 -0.19,0.977 -0.373,1.921 -0.557,2.867 0.064,0.031 0.103,0.054 0.144,0.069 2.675,1.023 5.349,2.047 8.026,3.063 0.104,0.04 0.247,0.037 0.354,0.003 3.066,-1.008 6.13,-2.018 9.19,-3.043 0.127,-0.042 0.275,-0.206 0.302,-0.337 0.377,-1.813 0.736,-3.631 1.097,-5.448 0.062,-0.315 0.114,-0.632 0.178,-0.989 -7.995,0 -15.929,0 -23.864,0 -0.004,-0.067 -0.014,-0.102 -0.007,-0.134 0.353,-1.783 0.718,-3.564 1.053,-5.353 0.06,-0.317 0.175,-0.397 0.481,-0.393 1.436,0.015 2.871,0.008 4.306,0.008 6.254,0 12.508,0.001 18.761,0.001 0.146,0 0.293,0 0.457,0 0.249,-1.272 0.491,-2.514 0.744,-3.807 -8.009,0 -15.942,0 -23.9,0 0.395,-1.979 0.782,-3.916 1.17,-5.857 0.121,-0.006 0.21,-0.014 0.3,-0.014 7.735,-0.002 15.469,0 23.204,-0.002 2.096,0 4.191,-0.008 6.287,-0.013 0,0.068 0,0.137 0,0.205 -0.025,0.06 -0.062,0.117 -0.074,0.18 -0.666,3.354 -1.327,6.709 -1.997,10.063 -1.037,5.204 -2.083,10.405 -3.115,15.61 -0.051,0.255 -0.146,0.383 -0.398,0.466 -5.08,1.679 -10.157,3.363 -15.232,5.057 -0.267,0.089 -0.493,0.074 -0.75,-0.024 -4.347,-1.67 -8.698,-3.334 -13.048,-4.997 -0.123,-0.049 -0.256,-0.071 -0.385,-0.106 z"
             fill="#f9f6f3" />
        </g>
      </g>
    </g>
  </g>
</svg>
