<?xml version="1.0" encoding="UTF-8" standalone="no"?>
<svg
   xmlns:dc="http://purl.org/dc/elements/1.1/"
   xmlns:cc="http://creativecommons.org/ns#"
   xmlns:rdf="http://www.w3.org/1999/02/22-rdf-syntax-ns#"
   xmlns:svg="http://www.w3.org/2000/svg"
   xmlns="http://www.w3.org/2000/svg"
   id="svg371"
   version="1.1"
   viewBox="0 0 4.7625 4.7625"
   height="18"
   width="18">
  <defs
     id="defs365" />
  <metadata
     id="metadata368">
    <rdf:RDF>
      <cc:Work
         rdf:about="">
        <dc:format>image/svg+xml</dc:format>
        <dc:type
           rdf:resource="http://purl.org/dc/dcmitype/StillImage" />
        <dc:title></dc:title>
      </cc:Work>
    </rdf:RDF>
  </metadata>
  <g
     id="layer1">
    <g
       style="fill:#484848;fill-opacity:1"
       id="g129"
       transform="matrix(0.26458333,0,0,0.26458333,-42.906156,-13.421254)">
      <path
         style="fill:#484848;fill-opacity:1"
         id="path121"
         d="m 179.197,64.611 c 0,0.965 -0.006,1.931 0.005,2.896 0.003,0.214 -0.067,0.264 -0.271,0.264 -1.915,-0.006 -3.829,-0.007 -5.743,0.002 -0.237,0.002 -0.312,-0.059 -0.311,-0.305 0.011,-1.914 0.01,-3.829 10e-4,-5.743 -10e-4,-0.229 0.068,-0.278 0.285,-0.277 1.923,0.008 3.846,0.008 5.768,10e-4 0.206,-0.002 0.274,0.053 0.272,0.265 -0.011,0.966 -0.004,1.931 -0.004,2.897 -0.001,0 -0.001,0 -0.002,0 z"
         fill="#484848"
         clip-rule="evenodd"
         fill-rule="evenodd" />
      <path
         style="fill:#484848;fill-opacity:1"
         id="path123"
         d="m 172.897,58.502 c 0,-2.097 0,-4.175 0,-6.268 2.095,0 4.173,0 6.276,0 0,2.082 0,4.165 0,6.268 -2.082,0 -4.167,0 -6.276,0 z"
         fill="#484848"
         clip-rule="evenodd"
         fill-rule="evenodd" />
      <path
         style="fill:#484848;fill-opacity:1"
         id="path125"
         d="m 169.942,61.476 c 0,2.093 0,4.173 0,6.273 -2.094,0 -4.178,0 -6.277,0 0,-2.092 0,-4.17 0,-6.273 2.082,0 4.164,0 6.277,0 z"
         fill="#484848"
         clip-rule="evenodd"
         fill-rule="evenodd" />
      <path
         style="fill:#484848;fill-opacity:1"
         id="path127"
         d="m 163.668,52.226 c 2.096,0 4.167,0 6.262,0 0,2.089 0,4.172 0,6.276 -2.076,0 -4.16,0 -6.262,0 0,-2.084 0,-4.168 0,-6.276 z"
         fill="#484848"
         clip-rule="evenodd"
         fill-rule="evenodd" />
    </g>
  </g>
</svg>
