<?xml version="1.0" encoding="UTF-8" standalone="no"?>
<svg
   xmlns:dc="http://purl.org/dc/elements/1.1/"
   xmlns:cc="http://creativecommons.org/ns#"
   xmlns:rdf="http://www.w3.org/1999/02/22-rdf-syntax-ns#"
   xmlns:svg="http://www.w3.org/2000/svg"
   xmlns="http://www.w3.org/2000/svg"
   id="svg371"
   version="1.1"
   viewBox="0 0 4.7625 4.7625"
   height="18"
   width="18">
  <defs
     id="defs365" />
  <metadata
     id="metadata368">
    <rdf:RDF>
      <cc:Work
         rdf:about="">
        <dc:format>image/svg+xml</dc:format>
        <dc:type
           rdf:resource="http://purl.org/dc/dcmitype/StillImage" />
        <dc:title></dc:title>
      </cc:Work>
    </rdf:RDF>
  </metadata>
  <g
     id="layer1">
    <g
       style="fill:#484848;fill-opacity:1"
       id="g137"
       transform="matrix(0.26458333,0,0,0.26458333,-82.936452,-13.387581)">
      <path
         style="fill:#484848;fill-opacity:1"
         id="path135"
         d="m 322.462,54.271 c 0.217,-0.237 0.416,-0.48 0.645,-0.689 2.572,-2.366 6.746,-1.157 7.699,2.218 0.328,1.165 0.158,2.252 -0.404,3.306 -0.621,1.17 -1.424,2.209 -2.293,3.2 -1.678,1.907 -3.537,3.62 -5.488,5.24 -0.043,0.037 -0.092,0.07 -0.158,0.119 -0.371,-0.315 -0.744,-0.623 -1.111,-0.94 -1.764,-1.537 -3.463,-3.145 -4.963,-4.948 -0.76,-0.91 -1.439,-1.871 -1.975,-2.936 -0.998,-1.979 -0.168,-4.132 1.137,-5.285 0.906,-0.803 1.975,-1.219 3.18,-1.21 1.475,0.011 2.67,0.625 3.6,1.76 0.041,0.054 0.082,0.109 0.131,0.165 z m -0.022,2.279 c -0.027,-0.031 -0.063,-0.083 -0.105,-0.135 -0.592,-0.777 -1.268,-1.469 -2.131,-1.947 -1.295,-0.717 -2.787,-0.494 -3.75,0.6 -0.691,0.783 -0.988,1.697 -0.633,2.729 0.234,0.696 0.654,1.3 1.096,1.886 1.576,2.117 3.461,3.935 5.441,5.667 0.121,0.105 0.182,0.041 0.266,-0.029 1.598,-1.349 3.107,-2.785 4.459,-4.378 0.699,-0.82 1.355,-1.673 1.844,-2.639 0.293,-0.573 0.412,-1.164 0.293,-1.809 -0.305,-1.609 -1.969,-2.727 -3.566,-2.383 -0.754,0.163 -1.396,0.551 -1.945,1.075 -0.44,0.425 -0.837,0.898 -1.269,1.363 z"
         fill="#484848"
         clip-rule="evenodd"
         fill-rule="evenodd" />
    </g>
  </g>
</svg>
