<?xml version="1.0" encoding="UTF-8" standalone="no"?>
<svg
   xmlns:dc="http://purl.org/dc/elements/1.1/"
   xmlns:cc="http://creativecommons.org/ns#"
   xmlns:rdf="http://www.w3.org/1999/02/22-rdf-syntax-ns#"
   xmlns:svg="http://www.w3.org/2000/svg"
   xmlns="http://www.w3.org/2000/svg"
   id="svg371"
   version="1.1"
   viewBox="0 0 6.6145833 6.6145833"
   height="25"
   width="25">
  <defs
     id="defs365" />
  <metadata
     id="metadata368">
    <rdf:RDF>
      <cc:Work
         rdf:about="">
        <dc:format>image/svg+xml</dc:format>
        <dc:type
           rdf:resource="http://purl.org/dc/dcmitype/StillImage" />
        <dc:title></dc:title>
      </cc:Work>
    </rdf:RDF>
  </metadata>
  <g
     id="layer1">
    <g
       transform="matrix(0.26458333,0,0,0.26458333,-15.986357,-0.26750902)"
       style="fill:#484848;fill-opacity:1"
       id="g36">
      <path
         style="fill:#484848;fill-opacity:1"
         id="path34"
         d="m 73.128,23.195 c -0.123,0 -0.246,0 -0.371,0 -0.144,-0.081 -0.295,-0.153 -0.432,-0.243 -2.765,-1.843 -5.531,-3.688 -8.297,-5.528 -0.244,-0.163 -0.472,-0.33 -0.585,-0.612 0,-2.079 0,-4.157 0,-6.235 0.101,-0.198 0.221,-0.372 0.414,-0.5 2.855,-1.898 5.708,-3.799 8.559,-5.703 0.354,-0.236 0.695,-0.24 1.051,-0.002 2.852,1.903 5.703,3.805 8.558,5.703 0.288,0.192 0.424,0.439 0.423,0.79 -0.008,1.874 -0.01,3.747 0.002,5.62 10e-4,0.388 -0.148,0.648 -0.467,0.86 -2.481,1.646 -4.955,3.302 -7.435,4.951 -0.466,0.308 -0.946,0.599 -1.42,0.899 z m -7.38,-6.6 c 2.133,1.422 4.242,2.826 6.362,4.239 0.009,-0.045 0.017,-0.062 0.017,-0.079 0,-1.199 0.002,-2.398 -0.004,-3.597 0,-0.063 -0.058,-0.146 -0.113,-0.183 -1.096,-0.738 -2.196,-1.471 -3.293,-2.208 -0.098,-0.064 -0.16,-0.068 -0.26,-10e-4 -0.854,0.578 -1.713,1.149 -2.569,1.723 -0.041,0.028 -0.078,0.058 -0.14,0.106 z m 0.002,-5.803 c 0.047,0.038 0.072,0.063 0.102,0.082 0.877,0.587 1.757,1.172 2.63,1.766 0.109,0.074 0.167,0.023 0.243,-0.027 1.089,-0.728 2.178,-1.456 3.269,-2.18 0.096,-0.065 0.139,-0.13 0.138,-0.251 -0.006,-1.15 -0.004,-2.3 -0.005,-3.449 0,-0.052 -0.006,-0.104 -0.012,-0.184 -2.131,1.421 -4.24,2.826 -6.365,4.243 z m 14.388,5.804 c -0.045,-0.037 -0.063,-0.056 -0.083,-0.069 -0.883,-0.591 -1.769,-1.179 -2.646,-1.776 -0.107,-0.071 -0.166,-0.03 -0.244,0.022 -1.088,0.727 -2.176,1.456 -3.269,2.179 -0.104,0.07 -0.142,0.144 -0.141,0.268 0.005,1.138 0.003,2.276 0.003,3.413 0,0.058 0,0.117 0,0.214 2.143,-1.428 4.251,-2.833 6.38,-4.251 z M 73.759,6.541 c 0,1.265 -0.002,2.484 0.006,3.701 0,0.06 0.064,0.14 0.121,0.179 1.091,0.734 2.188,1.461 3.277,2.196 0.105,0.07 0.174,0.068 0.275,-0.001 0.844,-0.572 1.691,-1.136 2.539,-1.703 0.049,-0.034 0.094,-0.071 0.16,-0.12 C 78.009,9.374 75.901,7.968 73.759,6.541 Z m 2.051,7.16 c -0.036,-0.03 -0.053,-0.046 -0.071,-0.06 -0.897,-0.602 -1.796,-1.2 -2.69,-1.807 -0.105,-0.071 -0.165,-0.025 -0.244,0.026 -0.866,0.581 -1.733,1.16 -2.6,1.74 -0.039,0.027 -0.076,0.057 -0.113,0.083 0.014,0.023 0.018,0.037 0.026,0.042 0.913,0.612 1.825,1.224 2.741,1.83 0.041,0.028 0.133,0.026 0.175,-0.002 0.919,-0.608 1.836,-1.223 2.776,-1.852 z m -10.732,1.354 c 0.692,-0.462 1.354,-0.905 2.038,-1.362 -0.69,-0.46 -1.353,-0.902 -2.038,-1.359 0,0.921 0,1.798 0,2.721 z M 80.8,15.05 c 0,-0.921 0,-1.8 0,-2.712 -0.685,0.457 -1.347,0.9 -2.029,1.356 0.688,0.461 1.347,0.901 2.029,1.356 z"
         fill="#f2f2f2"
         clip-rule="evenodd"
         fill-rule="evenodd" />
    </g>
  </g>
</svg>
