<?xml version="1.0" encoding="UTF-8" standalone="no"?>
<svg
   xmlns:dc="http://purl.org/dc/elements/1.1/"
   xmlns:cc="http://creativecommons.org/ns#"
   xmlns:rdf="http://www.w3.org/1999/02/22-rdf-syntax-ns#"
   xmlns:svg="http://www.w3.org/2000/svg"
   xmlns="http://www.w3.org/2000/svg"
   id="svg371"
   version="1.1"
   viewBox="0 0 6.6145833 6.6145833"
   height="25"
   width="25">
  <defs
     id="defs365" />
  <metadata
     id="metadata368">
    <rdf:RDF>
      <cc:Work
         rdf:about="">
        <dc:format>image/svg+xml</dc:format>
        <dc:type
           rdf:resource="http://purl.org/dc/dcmitype/StillImage" />
        <dc:title></dc:title>
      </cc:Work>
    </rdf:RDF>
  </metadata>
  <g
     id="layer1">
    <path
       fill-rule="evenodd"
       clip-rule="evenodd"
       fill="#f2f2f2"
       d="m 4.7703121,2.4179698 c -0.03625,0.3130024 -0.06879,0.6117174 -0.108478,0.9096384 -0.0032,0.02302 -0.05847,0.05556 -0.08996,0.05609 -0.215371,0.005 -0.431535,0.0082 -0.646906,5.29e-4 -0.106892,-0.004 -0.141552,0.02619 -0.141023,0.137848 0.0042,0.887942 5.29e-4,1.775884 0.0053,2.663825 5.29e-4,0.110596 -0.03096,0.138907 -0.138904,0.136525 -0.319355,-0.0069 -0.64003,-0.0024 -0.959646,-0.0024 -0.03784,0 -0.07646,0 -0.131234,0 0,-0.05821 0,-0.103717 0,-0.14896 0,-0.880798 0,-1.761596 0,-2.642394 0,-0.141817 -7.94e-4,-0.142081 -0.142607,-0.142346 -0.183359,-2.64e-4 -0.366448,0 -0.558536,0 -0.0042,-0.03861 -0.0098,-0.06877 -0.0098,-0.09973 -0.0011,-0.259026 0.0011,-0.517788 -0.0021,-0.7765514 -0.0011,-0.06932 0.02117,-0.09472 0.0926,-0.09313 0.169068,0.004 0.337872,-0.0034 0.506941,0.0029 0.09155,0.0029 0.115887,-0.03228 0.115358,-0.119327 -0.0037,-0.247914 -0.0093,-0.496887 0.0056,-0.744008 0.02064,-0.365919 0.131763,-0.69294405 0.470165,-0.89376205 0.205316,-0.121708 0.435504,-0.171185 0.66966,-0.179387 0.319352,-0.01058 0.640292,-0.0069 0.959643,-0.004 0.0299,0 0.0852,0.03704 0.08572,0.05741 0.0056,0.290247 0.0042,0.58075905 0.0042,0.88661705 -0.154514,0 -0.297126,-0.0048 -0.439207,0.0019 -0.110593,0.005 -0.221718,0.01693 -0.3302,0.03916 -0.09922,0.0209 -0.172506,0.09207 -0.178856,0.192352 -0.01508,0.232833 -0.01746,0.466461 -0.01614,0.699558 0,0.02064 0.06403,0.05847 0.09922,0.059 0.251616,0.005 0.503238,0.0026 0.755118,0.0026 0.0381,0 0.07699,0 0.124093,0 z"
       id="path20"
       style="fill:#484848;fill-opacity:1;stroke-width:0.264583" />
  </g>
</svg>
