<?xml version="1.0" encoding="UTF-8" standalone="no"?>
<svg
   xmlns:dc="http://purl.org/dc/elements/1.1/"
   xmlns:cc="http://creativecommons.org/ns#"
   xmlns:rdf="http://www.w3.org/1999/02/22-rdf-syntax-ns#"
   xmlns:svg="http://www.w3.org/2000/svg"
   xmlns="http://www.w3.org/2000/svg"
   id="svg371"
   version="1.1"
   viewBox="0 0 7.9374999 7.4083333"
   height="28"
   width="30">
  <defs
     id="defs365" />
  <metadata
     id="metadata368">
    <rdf:RDF>
      <cc:Work
         rdf:about="">
        <dc:format>image/svg+xml</dc:format>
        <dc:type
           rdf:resource="http://purl.org/dc/dcmitype/StillImage" />
        <dc:title></dc:title>
      </cc:Work>
    </rdf:RDF>
  </metadata>
  <g
     id="layer1">
    <g
       style="fill:#484848;fill-opacity:1"
       id="ZJdHiV_1_"
       transform="matrix(0.20571441,0,0,0.20571441,-53.918408,-24.545816)">
      <g
         style="fill:#484848;fill-opacity:1"
         id="g88">
        <g
           style="fill:#484848;fill-opacity:1"
           id="g86">
          <path
             style="fill:#484848;fill-opacity:1"
             id="path80"
             d="m 268.654,125.251 c -0.65,1.42 -1.084,2.886 -1.268,4.429 -0.25,2.093 -0.055,4.148 0.537,6.164 1.262,4.308 3.85,7.665 7.465,10.255 2.318,1.657 4.867,2.818 7.691,3.304 3.605,0.618 7.137,0.431 10.516,-1.111 1.744,-0.795 3.234,-1.929 4.453,-3.413 0.039,-0.049 0.082,-0.096 0.172,-0.119 -0.035,0.083 -0.064,0.17 -0.105,0.25 -2.223,4.453 -5.725,7.331 -10.572,8.516 -2.439,0.596 -4.914,0.601 -7.389,0.252 -3.217,-0.453 -6.021,-1.869 -8.553,-3.834 -3.461,-2.686 -5.842,-6.127 -6.955,-10.39 -0.777,-2.972 -0.762,-5.931 0.35,-8.834 0.42,-1.096 0.986,-2.109 1.729,-3.024 0.654,-0.808 1.287,-1.631 1.929,-2.445 z"
             fill="#f9f6f3"
             clip-rule="evenodd"
             fill-rule="evenodd" />
          <path
             style="fill:#484848;fill-opacity:1"
             id="path82"
             d="m 277.578,122.154 c -0.385,0.833 -0.697,1.683 -0.879,2.579 -0.525,2.593 -0.143,5.076 1.068,7.399 2.207,4.231 5.693,6.815 10.377,7.729 2.754,0.536 5.404,0.177 7.879,-1.211 1.184,-0.664 2.178,-1.551 2.982,-2.648 0.02,-0.027 0.039,-0.054 0.1,-0.061 -0.053,0.14 -0.098,0.283 -0.16,0.419 -1.592,3.495 -4.271,5.645 -8.021,6.444 -2.023,0.432 -4.068,0.399 -6.084,-0.015 -1.432,-0.294 -2.756,-0.934 -3.994,-1.719 -2.834,-1.798 -4.914,-4.221 -5.969,-7.433 -0.91,-2.772 -0.869,-5.534 0.486,-8.173 0.451,-0.876 1.08,-1.662 1.631,-2.487 0.188,-0.279 0.389,-0.549 0.584,-0.823 z"
             fill="#f9f6f3"
             clip-rule="evenodd"
             fill-rule="evenodd" />
          <path
             style="fill:#484848;fill-opacity:1"
             id="path84"
             d="m 298.01,129.667 c -1.27,2.42 -3.23,3.729 -5.992,3.859 -4.236,0.2 -7.705,-2.818 -8.717,-6.002 -0.697,-2.197 -0.428,-4.26 0.939,-6.147 0.211,-0.291 0.422,-0.58 0.627,-0.861 -0.15,0.52 -0.344,1.031 -0.445,1.561 -0.313,1.633 0.025,3.176 0.799,4.617 1.441,2.687 3.688,4.281 6.693,4.799 1.236,0.214 2.465,0.229 3.674,-0.163 0.971,-0.316 1.769,-0.884 2.422,-1.663 z"
             fill="#f9f6f3"
             clip-rule="evenodd"
             fill-rule="evenodd" />
        </g>
      </g>
    </g>
  </g>
</svg>
