<?xml version="1.0" encoding="UTF-8" standalone="no"?>
<svg
   xmlns:dc="http://purl.org/dc/elements/1.1/"
   xmlns:cc="http://creativecommons.org/ns#"
   xmlns:rdf="http://www.w3.org/1999/02/22-rdf-syntax-ns#"
   xmlns:svg="http://www.w3.org/2000/svg"
   xmlns="http://www.w3.org/2000/svg"
   id="svg371"
   version="1.1"
   viewBox="0 0 7.9374999 9.2604166"
   height="35"
   width="30">
  <defs
     id="defs365" />
  <metadata
     id="metadata368">
    <rdf:RDF>
      <cc:Work
         rdf:about="">
        <dc:format>image/svg+xml</dc:format>
        <dc:type
           rdf:resource="http://purl.org/dc/dcmitype/StillImage" />
        <dc:title></dc:title>
      </cc:Work>
    </rdf:RDF>
  </metadata>
  <g
     id="layer1">
    <g
       transform="matrix(0.21166115,0,0,0.21166115,-0.7527967,-24.346994)"
       id="_x34_finyx_1_"
       style="fill:#484848;fill-opacity:1">
      <g
         id="g106"
         style="fill:#484848;fill-opacity:1">
        <g
           id="g104"
           style="fill:#484848;fill-opacity:1">
          <path
             fill-rule="evenodd"
             clip-rule="evenodd"
             fill="#f9f6f3"
             d="m 37.095,132.281 c -0.167,1.869 -0.327,3.65 -0.486,5.433 -0.238,2.658 -0.479,5.315 -0.715,7.971 -0.156,1.748 -0.294,3.496 -0.473,5.242 -0.018,0.17 -0.235,0.414 -0.405,0.461 -4.021,1.131 -8.047,2.242 -12.076,3.346 -0.178,0.048 -0.396,0.035 -0.577,-0.016 -3.992,-1.098 -7.982,-2.201 -11.968,-3.32 -0.164,-0.046 -0.391,-0.241 -0.404,-0.385 -0.298,-3.092 -0.57,-6.188 -0.845,-9.279 -0.003,-0.033 0.022,-0.068 0.046,-0.137 2.027,0 4.065,0 6.145,0 0.124,1.411 0.268,2.788 0.355,4.169 0.034,0.546 0.195,0.812 0.775,0.952 1.949,0.473 3.878,1.03 5.819,1.535 0.251,0.064 0.548,0.068 0.798,0.004 2.012,-0.523 4.015,-1.08 6.029,-1.6 0.385,-0.1 0.508,-0.27 0.541,-0.659 0.186,-2.257 0.406,-4.512 0.608,-6.768 0.021,-0.232 0.003,-0.468 0.003,-0.75 -7.123,0 -14.229,0 -21.417,0 -0.557,-6.25 -1.111,-12.461 -1.669,-18.717 10.359,0 20.645,0 31.026,0 -0.183,2.037 -0.365,4.06 -0.554,6.15 -7.911,0 -15.78,0 -23.716,0 0.194,2.159 0.38,4.239 0.572,6.367 7.538,0.001 15.027,0.001 22.588,0.001 z"
             id="path102"
             style="fill:#484848;fill-opacity:1" />
        </g>
      </g>
    </g>
  </g>
</svg>
