<?xml version="1.0" encoding="UTF-8" standalone="no"?>
<svg
   xmlns:dc="http://purl.org/dc/elements/1.1/"
   xmlns:cc="http://creativecommons.org/ns#"
   xmlns:rdf="http://www.w3.org/1999/02/22-rdf-syntax-ns#"
   xmlns:svg="http://www.w3.org/2000/svg"
   xmlns="http://www.w3.org/2000/svg"
   id="svg371"
   version="1.1"
   viewBox="0 0 7.9374999 7.4083333"
   height="28"
   width="30">
  <defs
     id="defs365" />
  <metadata
     id="metadata368">
    <rdf:RDF>
      <cc:Work
         rdf:about="">
        <dc:format>image/svg+xml</dc:format>
        <dc:type
           rdf:resource="http://purl.org/dc/dcmitype/StillImage" />
        <dc:title></dc:title>
      </cc:Work>
    </rdf:RDF>
  </metadata>
  <g
     id="layer1">
    <g
       transform="matrix(0.21552918,0,0,0.21552918,-37.372131,-25.635554)"
       id="DTyRfQ_1_"
       style="fill:#484848;fill-opacity:1">
      <g
         id="g77"
         style="fill:#484848;fill-opacity:1">
        <g
           id="g75"
           style="fill:#484848;fill-opacity:1">
          <path
             fill-rule="evenodd"
             clip-rule="evenodd"
             fill="#f9f6f3"
             d="m 207.142,129.806 c -1.042,-0.304 -2.049,-0.667 -3.086,-0.885 -1.355,-0.286 -2.736,-0.383 -4.099,0.023 -0.572,0.171 -1.083,0.452 -1.468,0.923 -0.678,0.828 -0.667,2.016 0.091,2.767 0.377,0.374 0.83,0.709 1.307,0.939 1.044,0.503 2.119,0.944 3.194,1.378 1.316,0.532 2.589,1.135 3.708,2.024 1.841,1.462 2.71,3.377 2.656,5.719 -0.077,3.37 -2.003,5.938 -5.343,7.114 -2.11,0.743 -4.289,0.889 -6.5,0.713 -1.706,-0.135 -3.363,-0.49 -4.956,-1.123 -0.296,-0.117 -0.583,-0.262 -0.896,-0.403 0.397,-1.606 0.789,-3.185 1.183,-4.778 0.538,0.224 1.05,0.451 1.573,0.649 1.474,0.559 3.001,0.868 4.575,0.927 0.925,0.034 1.841,-0.045 2.71,-0.4 1.341,-0.549 1.976,-1.756 1.631,-3.077 -0.169,-0.648 -0.594,-1.106 -1.119,-1.484 -0.888,-0.638 -1.899,-1.022 -2.918,-1.384 -1.643,-0.585 -3.208,-1.31 -4.604,-2.381 -4.052,-3.112 -3.383,-8.942 0.653,-11.472 1.536,-0.963 3.222,-1.454 5.007,-1.6 2.22,-0.182 4.413,-0.008 6.547,0.676 0.415,0.134 0.82,0.3 1.217,0.479 0.082,0.038 0.172,0.216 0.15,0.3 -0.393,1.451 -0.802,2.898 -1.209,4.347 -0.008,0.028 -0.027,0.056 -0.004,0.009 z"
             id="path71"
             style="fill:#484848;fill-opacity:1" />
          <path
             fill-rule="evenodd"
             clip-rule="evenodd"
             fill="#f9f6f3"
             d="m 182.067,124.369 c 1.965,0 3.873,0 5.799,0 0.013,0.091 0.034,0.167 0.034,0.243 -0.004,5.539 -0.003,11.076 -0.019,16.613 -0.004,1.562 -0.225,3.096 -0.789,4.563 -0.958,2.493 -2.795,3.961 -5.381,4.505 -2.301,0.484 -4.594,0.376 -6.869,-0.199 -0.121,-0.03 -0.239,-0.069 -0.396,-0.116 0.217,-1.57 0.432,-3.125 0.64,-4.629 0.869,0.121 1.713,0.286 2.565,0.342 0.588,0.037 1.202,-0.005 1.779,-0.131 1.455,-0.316 2.146,-1.376 2.417,-2.744 0.129,-0.65 0.207,-1.321 0.208,-1.983 0.017,-5.343 0.01,-10.685 0.01,-16.026 0.002,-0.137 0.002,-0.273 0.002,-0.438 z"
             id="path73"
             style="fill:#484848;fill-opacity:1" />
        </g>
      </g>
    </g>
  </g>
</svg>
