<?xml version="1.0" encoding="UTF-8" standalone="no"?>
<svg
   xmlns:dc="http://purl.org/dc/elements/1.1/"
   xmlns:cc="http://creativecommons.org/ns#"
   xmlns:rdf="http://www.w3.org/1999/02/22-rdf-syntax-ns#"
   xmlns:svg="http://www.w3.org/2000/svg"
   xmlns="http://www.w3.org/2000/svg"
   id="svg371"
   version="1.1"
   viewBox="0 0 6.6145833 6.6145833"
   height="25"
   width="25">
  <defs
     id="defs365" />
  <metadata
     id="metadata368">
    <rdf:RDF>
      <cc:Work
         rdf:about="">
        <dc:format>image/svg+xml</dc:format>
        <dc:type
           rdf:resource="http://purl.org/dc/dcmitype/StillImage" />
        <dc:title></dc:title>
      </cc:Work>
    </rdf:RDF>
  </metadata>
  <g
     id="layer1">
    <g
       id="g32"
       style="fill:#484848;fill-opacity:1"
       transform="matrix(0.26458333,0,0,0.26458333,-30.962443,-0.31520499)">
      <path
         fill-rule="evenodd"
         clip-rule="evenodd"
         fill="#f2f2f2"
         d="m 128.298,16.662 c -0.385,-0.079 -0.733,-0.135 -1.073,-0.224 -1.089,-0.284 -2.025,-0.819 -2.732,-1.713 -0.496,-0.628 -0.745,-1.358 -0.822,-2.147 -0.108,-1.09 -0.037,-2.172 0.211,-3.239 0.112,-0.479 0.331,-0.908 0.677,-1.262 0.173,-0.178 0.206,-0.373 0.129,-0.603 -0.271,-0.797 -0.196,-1.59 0.035,-2.382 0.057,-0.193 0.162,-0.24 0.356,-0.184 0.748,0.214 1.286,0.709 1.766,1.286 0.101,0.123 0.178,0.316 0.302,0.351 0.111,0.032 0.264,-0.136 0.411,-0.168 0.519,-0.115 1.041,-0.246 1.569,-0.303 0.995,-0.107 1.993,-0.057 2.978,0.131 0.26,0.05 0.514,0.167 0.751,0.291 0.155,0.081 0.227,0.061 0.34,-0.063 0.345,-0.377 0.683,-0.769 1.075,-1.092 0.246,-0.204 0.584,-0.3 0.885,-0.435 0.163,-0.073 0.271,-0.011 0.328,0.162 0.277,0.826 0.341,1.654 0.021,2.481 -0.076,0.197 -0.047,0.328 0.104,0.479 0.505,0.509 0.733,1.153 0.833,1.846 0.129,0.891 0.204,1.785 0.101,2.687 -0.176,1.542 -0.947,2.679 -2.326,3.392 -0.672,0.347 -1.385,0.559 -2.135,0.653 -0.05,0.005 -0.097,0.031 -0.101,0.033 0.13,0.374 0.27,0.733 0.379,1.102 0.057,0.19 0.084,0.396 0.085,0.596 0.008,1.262 0.004,2.524 0.004,3.787 0,0.377 -0.015,0.394 -0.394,0.394 -1.315,0 -2.63,0 -3.945,0 -0.324,0 -0.356,-0.039 -0.354,-0.369 0.004,-0.633 0.001,-1.267 0.001,-1.945 -0.206,0.025 -0.408,0.049 -0.611,0.072 -0.993,0.107 -1.91,-0.072 -2.695,-0.732 -0.365,-0.308 -0.609,-0.703 -0.832,-1.12 -0.226,-0.425 -0.465,-0.848 -0.745,-1.238 -0.188,-0.264 -0.457,-0.472 -0.69,-0.703 -0.026,-0.027 -0.065,-0.045 -0.085,-0.075 -0.055,-0.083 -0.104,-0.171 -0.154,-0.256 0.094,-0.036 0.187,-0.097 0.281,-0.103 0.828,-0.05 1.432,0.324 1.882,0.997 0.181,0.269 0.359,0.547 0.585,0.775 0.8,0.811 1.771,0.973 2.838,0.662 0.093,-0.028 0.202,-0.168 0.214,-0.268 0.072,-0.548 0.176,-1.076 0.553,-1.553 z"
         id="path30"
         style="fill:#484848;fill-opacity:1" />
    </g>
  </g>
</svg>
