<?xml version="1.0" standalone="no"?>
<!DOCTYPE svg PUBLIC "-//W3C//DTD SVG 20010904//EN"
 "http://www.w3.org/TR/2001/REC-SVG-20010904/DTD/svg10.dtd">
<svg version="1.0" xmlns="http://www.w3.org/2000/svg"
 width="768.000000pt" height="768.000000pt" viewBox="0 0 768.000000 768.000000"
 preserveAspectRatio="xMidYMid meet">
<metadata>
Created by potrace 1.11, written by Peter Selinger 2001-2013
</metadata>
<g transform="translate(0.000000,768.000000) scale(0.100000,-0.100000)"
fill="#000000" stroke="none">
<path d="M3490 7553 c-69 -71 -158 -163 -199 -205 l-73 -77 83 -87 c46 -48
112 -117 147 -153 35 -36 86 -89 114 -117 l50 -51 -165 -169 c-90 -93 -201
-207 -246 -254 -46 -47 -189 -195 -319 -329 -131 -134 -271 -278 -312 -321
-41 -43 -190 -196 -332 -341 -141 -145 -291 -300 -333 -344 -107 -110 -616
-634 -808 -831 l-157 -161 -79 81 c-43 45 -104 109 -137 143 -32 33 -86 89
-118 123 l-60 62 -114 -118 c-62 -66 -149 -155 -193 -199 l-79 -80 66 -70 c36
-39 102 -108 147 -155 45 -47 165 -173 267 -279 102 -107 201 -211 220 -231
19 -20 114 -119 210 -220 96 -100 191 -199 210 -220 19 -20 115 -120 213 -222
l177 -185 129 131 c213 217 251 257 251 265 0 7 -14 22 -249 269 -69 73 -127
136 -128 140 -3 8 19 31 808 843 158 162 315 324 350 360 56 58 416 429 644
663 293 301 631 650 737 759 l124 128 146 -153 c80 -84 168 -177 195 -205 l50
-53 169 174 c93 95 182 187 198 204 l29 31 -66 68 c-36 37 -85 88 -108 113
-23 25 -121 128 -218 229 -97 102 -192 201 -211 221 -19 20 -112 117 -206 216
-94 98 -188 197 -209 219 -20 22 -115 121 -209 220 -95 99 -197 206 -227 238
l-55 58 -124 -128z"/>
<path d="M5185 5936 c-16 -18 -103 -108 -192 -201 -90 -93 -163 -171 -163
-174 0 -3 37 -45 83 -92 45 -47 156 -163 247 -258 91 -95 194 -204 230 -241
255 -266 382 -400 410 -430 18 -19 114 -120 214 -224 99 -104 194 -203 210
-220 15 -17 55 -58 88 -92 l59 -60 -148 -154 c-81 -84 -173 -179 -203 -210
-343 -352 -606 -624 -620 -640 -17 -20 -21 -17 -193 162 -96 101 -204 213
-239 250 l-63 68 -210 -216 c-371 -382 -434 -449 -428 -454 9 -9 319 -333 392
-410 39 -41 71 -78 71 -81 0 -4 -26 -34 -57 -67 -113 -118 -621 -638 -796
-814 l-177 -180 -58 60 c-31 33 -97 102 -147 154 -49 52 -169 177 -265 277
-96 101 -195 205 -220 231 -45 47 -345 362 -450 471 -30 32 -125 131 -210 220
-85 90 -169 178 -187 196 l-31 33 -151 -153 c-83 -85 -171 -175 -196 -202
l-44 -49 69 -70 c38 -39 90 -94 117 -122 51 -54 348 -366 423 -444 172 -179
420 -440 640 -670 96 -101 220 -232 276 -290 55 -58 114 -119 130 -136 16 -17
106 -111 199 -209 94 -97 194 -203 224 -234 29 -31 97 -102 151 -158 l98 -102
85 87 c47 48 123 126 169 174 45 47 205 211 353 364 149 152 295 303 325 334
51 53 443 456 796 819 84 86 182 188 219 226 37 39 181 187 320 330 139 143
292 301 340 350 48 50 207 213 354 364 146 151 297 306 334 345 38 39 91 94
117 121 l49 50 -72 77 c-40 42 -144 151 -232 243 -88 92 -178 186 -199 209
-21 22 -118 124 -215 225 -97 101 -194 203 -216 226 -80 85 -393 412 -491 515
-56 58 -116 121 -134 140 -18 19 -108 114 -200 210 -93 96 -187 195 -211 220
-222 236 -324 340 -333 339 -6 -1 -24 -15 -41 -33z"/>
<path d="M3770 5289 c-5 -13 -64 -157 -130 -319 -66 -162 -125 -304 -130 -315
-12 -25 -117 -281 -300 -725 -78 -190 -147 -358 -155 -375 -13 -30 -69 -166
-155 -375 l-47 -116 116 -120 116 -121 100 44 c55 24 109 48 120 52 11 5 115
50 230 101 116 51 338 148 495 217 157 68 305 133 329 145 24 11 189 83 365
160 303 131 401 175 488 216 l37 17 -106 110 c-58 61 -134 140 -170 177 l-65
68 -41 -21 c-22 -12 -90 -45 -151 -74 -61 -29 -181 -86 -266 -127 -367 -178
-681 -328 -705 -338 -11 -4 -69 -43 -130 -85 -60 -43 -135 -95 -165 -116 -30
-22 -56 -35 -58 -29 -3 8 48 90 68 110 3 3 37 52 76 110 60 89 103 181 294
615 122 281 245 559 271 619 27 60 49 114 49 120 0 6 -39 52 -86 101 -48 50
-131 137 -185 194 -94 99 -99 102 -109 80z"/>
</g>
</svg>
